<?xml version="1.0" standalone="no"?>
<!DOCTYPE svg PUBLIC "-//W3C//DTD SVG 20010904//EN"
 "http://www.w3.org/TR/2001/REC-SVG-20010904/DTD/svg10.dtd">
<svg version="1.0" xmlns="http://www.w3.org/2000/svg"
 width="3133.000000pt" height="2316.000000pt" viewBox="0 0 3133.000000 2316.000000"
 preserveAspectRatio="xMidYMid meet">
<metadata>
Created by potrace 1.16, written by Peter Selinger 2001-2019
</metadata>
<g transform="translate(0.000000,2316.000000) scale(0.100000,-0.100000)"
fill="#000000" stroke="none">
<path d="M17633 21448 c4 -656 7 -1898 7 -2760 l0 -1568 40 0 40 0 0 1593 c0
875 3 2095 7 2710 l6 1117 1495 0 1495 0 -7 38 c-3 20 -6 43 -6 50 0 9 -315
12 -1542 12 l-1541 0 6 -1192z"/>
<path d="M25215 17110 c-22 -5 -67 -18 -100 -30 -70 -26 -71 -26 -152 -9 -132
27 -282 -27 -392 -139 -138 -141 -201 -323 -201 -585 0 -131 23 -354 40 -385
4 -8 15 32 25 90 l18 105 305 67 c168 36 307 65 309 62 2 -2 -30 -35 -72 -72
l-77 -69 34 -8 c18 -4 101 -10 183 -13 216 -9 381 24 559 112 38 18 76 34 84
34 22 0 99 -57 128 -95 31 -41 54 -113 54 -170 0 -102 -81 -314 -174 -453 -39
-58 -39 -72 0 -72 60 0 134 70 235 224 117 178 195 371 205 506 8 106 -6 142
-79 199 -77 60 -125 136 -188 295 -65 165 -97 222 -156 278 -56 52 -162 99
-275 122 -81 17 -244 20 -313 6z"/>
<path d="M20377 15973 c-3 -4 -37 -87 -76 -183 -121 -298 -151 -342 -255 -371
l-49 -14 613 -760 c336 -418 620 -768 629 -778 13 -13 200 -55 742 -167 398
-82 744 -154 769 -160 25 -6 235 -50 467 -99 233 -48 424 -89 426 -92 2 -2 0
-139 -4 -304 -11 -452 -10 -1389 1 -1591 17 -278 27 -327 109 -514 40 -89 83
-196 98 -238 31 -91 41 -212 23 -267 -18 -54 -81 -118 -182 -186 -100 -67
-125 -98 -140 -172 -20 -92 24 -274 92 -380 25 -40 94 -97 133 -110 5 -1 -12
-34 -38 -72 -27 -39 -72 -119 -101 -180 -144 -300 -183 -544 -101 -633 70 -76
344 -193 547 -235 l65 -13 -156 -62 c-86 -34 -166 -62 -178 -62 -36 0 -92 28
-153 76 -32 25 -58 43 -58 41 0 -23 -63 -286 -80 -332 -26 -72 -23 -138 8
-183 18 -25 22 -44 22 -112 0 -253 -144 -1248 -426 -2941 l-28 -165 181 -1643
c100 -903 183 -1645 186 -1647 2 -2 188 -9 413 -14 225 -5 421 -12 437 -15
l27 -5 -1 108 c0 59 -22 755 -47 1547 l-48 1440 455 1174 c251 645 457 1169
458 1165 2 -5 66 -556 143 -1224 l140 -1215 529 -1480 529 -1480 426 -3 426
-2 -5 22 c-3 13 -151 679 -330 1481 l-325 1458 7 732 c7 892 -7 1333 -49 1550
-7 39 -22 71 -44 100 -18 23 -36 54 -40 69 -11 51 34 124 152 249 125 131 148
170 148 249 1 76 -36 148 -128 248 -41 44 -80 97 -87 118 -21 60 -17 385 9
655 12 125 22 251 22 281 l0 55 -52 11 c-52 10 -53 10 -100 -30 -26 -21 -87
-81 -136 -133 -84 -88 -92 -94 -158 -114 -279 -82 -1136 -184 -1341 -159 -82
9 -225 57 -379 126 -119 52 -120 47 16 73 115 22 204 76 342 205 235 221 406
324 537 324 42 0 128 -38 155 -68 39 -44 191 -81 396 -97 l85 -7 1 74 c0 59 5
83 26 124 60 115 185 177 310 154 65 -13 60 -18 167 185 l79 150 -9 132 c-14
202 -13 202 -105 19 -43 -86 -95 -178 -114 -204 -60 -81 -146 -109 -244 -80
-31 10 -63 35 -131 106 -141 147 -225 201 -526 342 -228 107 -336 176 -444
285 -243 245 -282 632 -99 998 60 121 114 197 207 294 176 184 455 342 761
432 245 72 673 169 686 155 4 -5 148 -220 320 -478 l312 -469 -133 -391 c-73
-215 -160 -471 -194 -569 l-62 -178 101 -97 c55 -54 132 -127 169 -162 76 -71
122 -135 139 -193 l12 -39 134 274 c73 150 178 368 232 483 54 116 184 385
289 599 105 214 191 395 191 403 0 8 -41 114 -91 236 -150 368 -342 852 -629
1587 -135 346 -272 711 -340 905 -62 175 -88 230 -167 345 -70 103 -112 133
-254 183 -142 50 -172 56 -301 68 -75 6 -115 14 -122 24 -6 7 -96 113 -200
233 l-189 220 -62 -29 c-91 -43 -226 -51 -325 -19 -39 12 -89 36 -112 53 -54
39 -85 34 -259 -39 -154 -65 -228 -79 -326 -64 -36 6 -74 15 -85 21 -10 5 -22
7 -27 4 -5 -3 -69 -79 -141 -169 l-132 -164 -82 -16 c-44 -9 -124 -30 -177
-47 l-95 -32 -265 42 c-285 45 -784 116 -889 126 -36 4 -261 31 -500 60 -239
30 -523 63 -630 75 -107 12 -202 24 -211 28 -12 5 -584 606 -1114 1170 -7 8
-15 10 -18 5z"/>
<path d="M9030 10887 l0 -1450 -2870 6 -2870 5 0 -50 0 -51 1127 6 c619 4
1931 7 2915 7 l1788 0 -2 1483 -3 1482 -42 6 -43 5 0 -1449z"/>
<path d="M15968 8132 l-38 -3 0 -1485 0 -1484 1310 0 1310 0 0 45 0 45 -1265
0 -1265 0 -1 338 c-1 185 -5 834 -8 1442 l-6 1105 -37 -3z"/>
<path d="M23667 675 c-109 -82 -132 -95 -165 -95 -21 0 -63 -7 -93 -16 -206
-61 -343 -229 -365 -447 l-7 -67 657 0 656 0 0 265 0 265 -56 0 c-47 0 -89 14
-267 86 -117 47 -217 90 -223 95 -7 6 -55 -24 -137 -86z"/>
<path d="M26545 674 c-107 -83 -125 -94 -161 -94 -92 0 -212 -53 -297 -130
-97 -89 -151 -198 -164 -332 l-6 -68 657 0 656 0 0 265 0 265 -57 0 c-48 0
-88 13 -267 86 -116 47 -215 90 -220 95 -6 5 -12 9 -15 8 -4 0 -60 -43 -126
-95z"/>
</g>
</svg>
