<?xml version="1.0" standalone="no"?>
<!DOCTYPE svg PUBLIC "-//W3C//DTD SVG 20010904//EN"
 "http://www.w3.org/TR/2001/REC-SVG-20010904/DTD/svg10.dtd">
<svg version="1.0" xmlns="http://www.w3.org/2000/svg"
 width="752.000000pt" height="556.000000pt" viewBox="0 0 752.000000 556.000000"
 preserveAspectRatio="xMidYMid meet">
<metadata>
Created by potrace 1.16, written by Peter Selinger 2001-2019
</metadata>
<g transform="translate(0.000000,556.000000) scale(0.100000,-0.100000)"
fill="#000000" stroke="none">
<path d="M4239 5238 c-1 -415 3 -1123 7 -1127 2 -2 4 289 4 647 l0 652 359 0
c229 0 362 4 366 10 4 7 -120 10 -364 10 l-371 0 -1 -192z"/>
<path d="M6035 4101 c-11 -5 -33 -7 -50 -5 -38 6 -89 -24 -111 -67 -21 -41
-30 -140 -16 -165 10 -16 11 -16 12 -2 0 11 15 19 53 28 28 6 61 14 72 17 16
4 18 3 8 -8 -7 -7 -13 -17 -13 -22 0 -15 131 -2 166 16 30 15 32 15 53 -7 26
-28 26 -58 1 -115 -40 -88 4 -60 50 32 33 66 39 121 15 134 -8 5 -30 38 -48
73 -22 45 -41 69 -61 79 -37 17 -105 23 -131 12z"/>
<path d="M4867 3778 c-14 -31 -34 -62 -45 -69 -18 -11 -10 -24 120 -184 76
-95 146 -179 156 -187 9 -8 123 -36 252 -62 129 -27 256 -52 281 -58 l47 -9
-1 -257 -1 -257 29 -70 c39 -96 38 -118 -13 -165 -23 -21 -42 -44 -42 -53 0
-24 29 -85 44 -94 13 -7 10 -18 -14 -68 -16 -33 -32 -77 -36 -98 -8 -50 10
-70 88 -99 l59 -21 -33 -14 c-18 -8 -43 -11 -55 -8 -13 3 -26 5 -30 4 -13 -2
-32 -80 -24 -101 10 -28 -4 -160 -50 -448 -22 -140 -43 -280 -45 -310 -4 -33
10 -197 35 -416 23 -199 41 -369 41 -378 0 -14 15 -16 105 -16 102 0 105 1
105 23 0 12 -5 178 -11 369 l-12 348 108 280 c60 154 110 278 112 276 4 -3 14
-83 47 -372 l24 -211 128 -356 127 -357 99 0 c54 0 98 4 98 8 0 5 -34 159 -76
343 l-76 334 -2 275 c-2 235 -5 281 -19 314 -17 39 -17 40 6 65 14 14 32 38
41 53 19 29 14 46 -27 98 -17 23 -19 35 -12 143 8 134 4 139 -56 81 -32 -31
-45 -37 -130 -50 -139 -23 -244 -23 -303 0 l-49 19 35 12 c19 6 62 34 96 62
70 59 109 72 145 49 13 -9 44 -19 70 -22 38 -5 47 -4 47 8 0 29 40 68 71 68
23 0 32 7 49 40 21 42 26 85 11 95 -5 3 -12 -3 -16 -14 -11 -35 -46 -71 -69
-71 -13 0 -37 13 -54 30 -17 16 -67 47 -111 70 -98 49 -143 92 -161 153 -31
114 40 238 175 305 67 33 234 77 245 65 4 -4 40 -57 80 -117 l72 -108 -47
-134 -47 -134 50 -54 51 -54 100 204 100 204 -76 188 c-42 103 -107 268 -144
367 -47 123 -77 187 -94 202 -14 12 -53 28 -86 35 -55 11 -66 18 -105 64 -43
51 -45 51 -90 46 -28 -3 -55 0 -70 8 -21 12 -30 11 -59 -3 -20 -9 -53 -17 -75
-17 -33 0 -44 -6 -70 -38 -49 -62 -87 -67 -282 -38 -90 14 -188 27 -218 31
-30 3 -91 10 -135 16 l-80 9 -137 142 -136 142 -25 -56z"/>
<path d="M2170 2615 l0 -345 -689 0 c-449 0 -692 -3 -696 -10 -4 -7 232 -10
699 -10 l706 0 0 355 c0 230 -4 355 -10 355 -6 0 -10 -122 -10 -345z"/>
<path d="M3830 1740 c-3 -124 -4 -287 -1 -362 l3 -138 314 0 c203 0 314 4 314
10 0 6 -110 10 -310 10 l-310 0 -2 353 c-3 337 -3 342 -8 127z"/>
<path d="M5691 166 c-7 -8 -34 -22 -61 -31 -54 -18 -77 -39 -89 -83 -7 -24 -6
-32 6 -36 8 -3 77 -6 154 -6 l139 0 0 63 0 62 -53 18 c-28 10 -59 21 -68 23
-8 3 -21 -1 -28 -10z"/>
<path d="M6372 160 c-13 -11 -41 -24 -62 -30 -46 -12 -80 -51 -80 -91 l0 -29
150 0 150 0 0 63 0 62 -53 18 c-80 28 -80 28 -105 7z"/>
</g>
</svg>
