<svg version="1.1" id="Layer_1" xmlns="http://www.w3.org/2000/svg" xmlns:xlink="http://www.w3.org/1999/xlink" x="0px" y="0px"
	 width="100%" viewBox="0 0 752 556" enable-background="new 0 0 752 556" xml:space="preserve">
<path fill="#F7F7F7" opacity="1.000000" stroke="none" 
	d="
M569.000000,0.999995 
	C630.317932,1.000000 691.635864,1.000000 752.976929,1.000000 
	C752.976929,186.271378 752.976929,371.542755 752.976929,556.907104 
	C502.333344,556.907104 251.666672,556.907104 1.000000,556.907104 
	C1.000000,484.226562 1.000000,411.578278 1.357765,338.471863 
	C4.962433,343.386261 9.949974,345.084045 15.943972,345.053864 
	C31.932266,344.973328 47.922737,344.903778 63.909031,345.099945 
	C68.822540,345.160217 73.063347,344.013550 77.092331,340.795593 
	C77.521507,340.315002 77.673592,339.955719 77.849487,339.401001 
	C77.873314,339.205566 78.187973,338.968903 78.390602,338.845459 
	C78.835587,338.484680 78.946205,338.196716 78.930939,337.616272 
	C78.936775,337.374390 79.202324,336.969879 79.411812,336.767517 
	C79.654762,336.186737 79.688217,335.808289 79.673798,335.172668 
	C79.777657,334.607239 79.929405,334.299011 80.240662,333.927612 
	C80.471481,333.776428 80.618721,333.665253 80.600235,333.604645 
	C80.539177,333.404510 80.418236,333.222687 80.303864,332.814026 
	C80.287445,332.594269 80.457802,332.187714 80.882423,332.231079 
	C92.917526,332.332764 104.528015,332.391052 116.100494,332.951294 
	C116.042664,353.271515 115.987709,373.089935 116.023811,392.908173 
	C116.035065,399.088104 117.822380,404.653076 123.995354,407.182343 
	C127.107643,408.457520 130.751877,408.921021 134.156509,408.924866 
	C217.095001,409.018921 300.033600,409.001495 383.062317,409.465118 
	C383.152496,417.521301 383.152496,425.116425 383.152496,433.202087 
	C404.523682,433.202087 425.264099,433.202087 446.104492,433.599854 
	C448.598450,442.371552 452.559662,445.758881 460.525116,445.798584 
	C477.320709,445.882324 494.117096,445.872467 510.912842,445.812286 
	C515.977783,445.794159 520.417236,444.230804 523.172668,439.570160 
	C528.634033,430.332764 522.571777,419.985107 511.291931,419.816345 
	C495.330933,419.577576 479.359619,419.963226 463.401093,419.652069 
	C454.711700,419.482635 448.518555,422.277618 445.424438,430.984741 
	C425.227142,430.958282 405.486481,430.958282 385.728638,430.958282 
	C385.728638,423.213898 385.728638,416.078888 386.214111,408.958618 
	C424.195312,408.981018 461.691071,408.989380 499.186829,408.995880 
	C510.352264,408.997833 521.518066,409.050507 532.682983,408.976959 
	C542.645203,408.911316 547.999939,403.524841 548.002014,393.742920 
	C548.013428,339.915619 548.020996,286.088318 548.415039,232.221924 
	C555.398987,233.584091 561.997803,234.985336 568.429260,236.351044 
	C568.429260,240.815231 568.378418,244.638367 568.437988,248.459778 
	C568.713318,266.119965 565.541626,284.085724 573.722717,301.025604 
	C575.574829,304.860443 574.062927,308.563293 570.117249,310.778809 
	C566.009888,313.085114 565.183960,316.466766 567.088196,320.509949 
	C568.252686,322.982330 569.858032,325.247009 571.364502,327.771271 
	C570.597717,329.059814 569.310242,330.653442 568.630493,332.473999 
	C566.705017,337.630676 563.090332,342.595428 566.162598,348.953674 
	C566.394592,351.556946 566.679443,353.734985 566.963989,356.312042 
	C566.703918,361.726807 566.768616,366.784576 566.124878,371.750549 
	C564.009460,388.069550 561.566345,404.345764 559.389038,420.657135 
	C557.988647,431.148956 554.618286,441.418243 556.262512,452.264374 
	C557.458496,460.153320 558.150940,468.119293 559.035583,476.054535 
	C560.763428,491.553497 562.468750,507.054962 564.197083,522.678467 
	C566.680481,522.868469 568.806396,523.031067 570.939087,523.637024 
	C571.298035,529.003479 571.650208,533.926636 571.702271,539.034363 
	C568.852356,540.658875 566.452087,542.559998 563.722351,543.445557 
	C557.445740,545.481934 555.175598,548.073364 554.546997,555.399719 
	C564.711975,555.399719 574.855164,555.399719 585.358215,555.399719 
	C585.358215,551.933655 585.608459,548.773743 585.226013,545.692322 
	C585.087219,544.574097 583.436707,543.643494 582.628296,542.135742 
	C582.893494,535.612671 583.006470,529.581299 583.550171,523.415283 
	C584.327454,521.624146 585.015442,519.957947 584.968506,518.312683 
	C584.384949,497.843109 583.493591,477.379669 583.176575,456.907013 
	C583.099854,451.947601 584.267761,446.774414 585.844177,442.025085 
	C588.971008,432.604645 592.743652,423.396545 596.320923,414.128296 
	C598.915344,407.406281 601.624817,400.728699 604.283020,394.031311 
	C606.399902,405.563110 607.668152,416.944916 609.053223,428.312500 
	C610.077942,436.723083 610.024536,445.514618 612.597900,453.439423 
	C619.869263,475.831604 628.205017,497.879822 636.288940,520.002319 
	C636.766479,521.309021 638.721069,522.075928 639.987915,523.540161 
	C640.321716,528.945496 640.655884,533.904602 640.688477,539.045288 
	C637.854431,540.693054 635.479980,542.649475 632.757751,543.526245 
	C626.579590,545.516174 624.111816,548.412720 623.759888,555.349487 
	C633.933655,555.350830 644.104980,555.350830 654.567871,555.350830 
	C654.567871,551.992004 654.870361,548.975647 654.427490,546.073059 
	C654.234741,544.809631 652.511230,543.779846 651.637268,542.151489 
	C651.862976,535.459412 651.934265,529.259766 652.418701,522.967896 
	C654.207336,522.747681 655.582764,522.619751 657.243408,522.465332 
	C653.458435,505.513855 649.658569,489.184906 646.211548,472.781769 
	C644.340942,463.880249 642.323364,454.902374 641.720886,445.868958 
	C640.980347,434.765686 641.779846,423.566986 641.646545,412.412720 
	C641.585144,407.270599 642.030457,401.669586 640.172668,397.124054 
	C638.152771,392.182129 639.419250,389.628754 642.655823,386.402374 
	C646.779785,382.291382 646.407959,380.215637 643.146606,375.538208 
	C641.556519,373.257721 640.278625,370.239227 640.211243,367.521301 
	C640.051025,361.057953 640.696167,354.574646 641.395752,348.111328 
	C647.184814,346.820740 648.850281,344.352356 648.127136,338.975677 
	C647.907410,337.341797 648.017883,335.663483 648.325500,334.151428 
	C652.988281,336.166138 655.200073,334.342316 656.137573,329.761169 
	C659.172302,323.613739 662.106750,317.809570 665.432983,311.992950 
	C669.998596,310.982849 674.126221,309.667847 678.355591,309.050201 
	C688.797302,307.525452 699.321960,306.551025 709.743713,304.912872 
	C717.851624,303.638397 724.685486,299.428955 728.275818,292.034637 
	C733.902649,280.446136 726.730530,269.594452 714.441956,266.182373 
	C698.798218,261.838745 682.902832,264.106537 666.857910,265.720673 
	C660.693359,250.189117 654.778992,234.923706 648.874573,219.654419 
	C647.106201,215.081207 644.242249,210.929382 639.260437,210.619675 
	C630.996033,210.105896 626.399719,204.977722 621.917725,199.202942 
	C621.444946,198.593796 620.663574,198.224228 620.027710,197.380066 
	C618.903381,195.490662 618.080078,193.212799 616.581604,192.608276 
	C614.097900,191.606262 611.169861,191.741547 608.446716,191.290405 
	C601.459290,190.132797 595.472168,193.176590 591.783691,200.035370 
	C588.198792,206.164795 582.936829,210.053436 576.404602,209.592224 
	C566.847656,208.917465 557.395874,206.753983 547.928589,204.741913 
	C547.972839,157.979996 547.992065,111.701149 547.998169,65.422302 
	C547.999268,57.489811 542.606750,52.021259 534.621582,52.017757 
	C498.664032,52.001987 462.706451,52.039513 426.639465,51.594818 
	C426.530060,39.543972 426.530060,27.956137 426.530060,15.897387 
	C450.714294,15.897387 474.324280,15.897387 498.255127,16.350140 
	C498.724152,17.141909 498.872284,17.480923 498.925354,17.822208 
	C498.830292,17.824478 498.851959,18.095203 498.851959,18.095203 
	C498.851959,18.095203 499.039764,18.039127 499.089905,18.427244 
	C501.410522,23.781425 505.277374,26.859610 510.705414,26.916117 
	C528.632202,27.102739 546.562805,27.088184 564.490173,26.938334 
	C570.156067,26.890976 574.281555,23.854046 576.288269,18.533537 
	C578.134766,13.637988 577.124512,9.045376 573.605408,5.156251 
	C572.225098,3.630748 570.544067,2.377319 569.000000,0.999995 
M586.902405,172.765823 
	C588.241272,180.143555 592.208984,185.316360 599.253235,188.253036 
	C606.842163,191.416794 613.405090,189.034042 620.528076,185.030090 
	C623.016479,181.816925 625.954529,178.850067 627.882568,175.329971 
	C630.449890,170.642685 632.532410,165.631165 626.696899,161.244034 
	C625.280518,160.179184 624.719604,157.852905 623.992065,156.016815 
	C620.844299,148.072784 614.116028,144.590515 605.764832,146.565460 
	C603.895935,147.007431 601.828918,146.769348 600.049744,147.399475 
	C596.643127,148.605988 592.493042,149.387054 590.230896,151.815781 
	C584.930664,157.506287 585.196167,164.775070 586.902405,172.765823 
z"/>
<path fill="#F7F7F7" opacity="1.000000" stroke="none" 
	d="
M1.000000,326.000000 
	C1.000000,217.722748 1.000000,109.445496 1.000000,1.000000 
	C169.356628,1.000000 337.713287,1.000000 506.385254,1.304776 
	C501.670197,4.084580 498.731232,8.071560 497.534912,13.638179 
	C472.948639,13.625353 448.822388,13.625353 423.966766,13.625353 
	C423.966766,26.780087 423.966766,39.387863 423.500427,51.997314 
	C326.606415,51.998768 230.178162,52.147583 133.751678,51.801899 
	C122.234337,51.760609 115.831795,58.268284 115.863716,69.590828 
	C116.108299,156.358398 115.990517,243.127014 115.523270,329.973297 
	C103.439926,330.059448 91.818634,330.067596 80.010933,329.757477 
	C76.877495,321.435425 73.497711,319.021973 64.901779,318.999298 
	C50.246147,318.960663 35.579407,319.324371 20.939009,318.850037 
	C13.087988,318.595642 6.388451,320.091125 1.000000,326.000000 
z"/>
<path fill="#1DBA14" opacity="1.000000" stroke="none" 
	d="
M1.000000,326.460632 
	C6.388451,320.091125 13.087988,318.595642 20.939009,318.850037 
	C35.579407,319.324371 50.246147,318.960663 64.901779,318.999298 
	C73.497711,319.021973 76.877495,321.435425 79.967468,330.116089 
	C80.226212,331.257843 80.342010,331.722778 80.457802,332.187714 
	C80.457802,332.187714 80.287445,332.594269 80.142639,333.027832 
	C80.025612,333.637878 80.053383,333.814331 80.081161,333.990814 
	C79.929405,334.299011 79.777657,334.607239 79.449509,335.366364 
	C79.249512,336.201477 79.225914,336.585663 79.202324,336.969879 
	C79.202324,336.969879 78.936775,337.374390 78.695633,337.709045 
	C78.365646,338.352081 78.276802,338.660492 78.187973,338.968903 
	C78.187973,338.968903 77.873314,339.205566 77.580849,339.527618 
	C77.130669,340.205414 76.972946,340.561157 76.815231,340.916901 
	C73.063347,344.013550 68.822540,345.160217 63.909031,345.099945 
	C47.922737,344.903778 31.932266,344.973328 15.943972,345.053864 
	C9.949974,345.084045 4.962433,343.386261 1.357765,338.006836 
	C1.000000,334.307098 1.000000,330.614166 1.000000,326.460632 
z"/>
<path fill="#1BBB12" opacity="1.000000" stroke="none" 
	d="
M497.994904,13.651005 
	C498.731232,8.071560 501.670197,4.084580 506.850250,1.304776 
	C527.354248,1.000000 547.708435,1.000000 568.531372,0.999995 
	C570.544067,2.377319 572.225098,3.630748 573.605408,5.156251 
	C577.124512,9.045376 578.134766,13.637988 576.288269,18.533537 
	C574.281555,23.854046 570.156067,26.890976 564.490173,26.938334 
	C546.562805,27.088184 528.632202,27.102739 510.705414,26.916117 
	C505.277374,26.859610 501.410522,23.781425 499.119141,18.408024 
	C499.098175,18.000687 499.020386,17.819942 499.020386,17.819941 
	C498.872284,17.480923 498.724152,17.141909 498.306152,16.071148 
	C498.022491,14.776604 498.008698,14.213804 497.994904,13.651005 
z"/>
<path fill="#413F56" opacity="1.000000" stroke="none" 
	d="
M566.215393,348.528473 
	C563.090332,342.595428 566.705017,337.630676 568.630493,332.473999 
	C569.310242,330.653442 570.597717,329.059814 571.364502,327.771271 
	C569.858032,325.247009 568.252686,322.982330 567.088196,320.509949 
	C565.183960,316.466766 566.009888,313.085114 570.117249,310.778809 
	C574.062927,308.563293 575.574829,304.860443 573.722717,301.025604 
	C565.541626,284.085724 568.713318,266.119965 568.437988,248.459778 
	C568.378418,244.638367 568.429260,240.815231 568.429260,236.351044 
	C561.997803,234.985336 555.398987,233.584091 548.023315,232.108948 
	C544.563110,231.538635 541.879822,231.042191 538.868164,230.360809 
	C530.276001,228.473770 521.996094,226.843872 513.763550,225.002472 
	C512.295349,224.674072 510.652832,223.770508 509.717773,222.622055 
	C500.106689,210.817963 490.624817,198.908646 481.455566,187.002609 
	C483.470947,185.074127 485.328491,183.303192 486.753906,181.234497 
	C488.369659,178.889618 489.598236,176.277969 491.181763,174.070190 
	C499.464783,182.958618 507.485992,191.632660 515.743408,200.075699 
	C516.904114,201.262527 519.220520,201.319168 521.402710,202.033661 
	C525.867126,202.649246 529.930725,203.130112 534.398193,203.738464 
	C536.203430,203.919403 537.604797,203.972824 539.369629,204.192169 
	C542.455078,204.647064 545.177185,204.936020 547.899231,205.224976 
	C557.395874,206.753983 566.847656,208.917465 576.404602,209.592224 
	C582.936829,210.053436 588.198792,206.164795 592.227173,199.998199 
	C596.187683,199.208542 599.513367,198.598450 602.866150,198.342407 
	C605.449158,198.145142 608.070129,198.505280 610.666992,198.413483 
	C613.790405,198.303070 616.906250,197.976501 620.025330,197.743530 
	C620.663574,198.224228 621.444946,198.593796 621.917725,199.202942 
	C626.399719,204.977722 630.996033,210.105896 639.260437,210.619675 
	C644.242249,210.929382 647.106201,215.081207 648.874573,219.654419 
	C654.778992,234.923706 660.693359,250.189117 666.869751,266.066956 
	C667.667175,267.932098 668.198792,269.186279 668.826538,270.778870 
	C670.194702,274.120422 671.466858,277.123535 672.799683,280.441650 
	C673.249878,281.505768 673.639465,282.254852 674.031860,283.359009 
	C674.738525,285.469177 675.442322,287.224335 676.004089,289.292816 
	C675.397400,290.650330 674.932678,291.694580 674.258423,293.008423 
	C671.507812,298.489838 668.966858,303.701691 666.242371,309.136292 
	C665.719666,310.241180 665.380432,311.123291 665.041199,312.005402 
	C662.106750,317.809570 659.172302,323.613739 655.799561,329.674927 
	C653.087341,327.426819 650.561279,325.098907 648.630676,322.352386 
	C647.402649,320.605347 647.058594,318.236938 646.562134,315.891693 
	C648.849915,309.420532 650.893738,303.204895 653.174194,296.760742 
	C653.588867,295.685089 653.766907,294.837891 654.165344,293.742676 
	C653.294189,291.311798 652.202576,289.128998 651.040588,286.636017 
	C650.339172,285.510345 649.708191,284.694824 649.002808,283.541504 
	C646.463745,279.483490 644.123291,275.670837 641.461365,272.097626 
	C640.623657,270.973145 638.754272,269.630432 637.644287,269.848633 
	C626.915283,271.957916 616.102173,274.028198 607.361145,281.375000 
	C592.308655,294.026520 594.471252,311.986938 611.908997,320.676605 
	C616.761780,323.094818 621.257019,326.230591 626.008240,329.390533 
	C627.819336,330.504974 630.408081,332.380157 631.107117,331.834442 
	C634.143372,329.464417 636.628662,326.388611 640.034241,322.813477 
	C640.034241,324.518372 640.034241,325.748383 639.973389,327.352600 
	C637.958496,330.893341 636.004517,334.059875 633.669678,337.135437 
	C627.924377,336.953674 626.724792,341.025421 625.497314,345.653015 
	C621.909424,344.782410 618.114746,344.721100 615.365784,342.994598 
	C611.165955,340.356964 607.792358,341.292114 604.374023,343.675690 
	C601.663940,345.565369 599.433350,348.178131 596.639771,349.902863 
	C593.774963,351.671600 590.484802,352.751526 586.930969,354.106445 
	C584.117615,354.056061 581.754211,354.032196 579.025146,353.876526 
	C574.511475,352.005981 570.363403,350.267212 566.215393,348.528473 
z"/>
<path fill="#313041" opacity="1.000000" stroke="none" 
	d="
M579.390747,354.008331 
	C581.754211,354.032196 584.117615,354.056061 587.104065,354.376160 
	C596.920898,360.647339 606.848633,358.570404 616.686218,357.267853 
	C624.642944,356.214294 633.042358,356.130463 638.473999,348.186890 
	C639.562256,348.139862 640.289062,348.119629 641.015930,348.099396 
	C640.696167,354.574646 640.051025,361.057953 640.211243,367.521301 
	C640.278625,370.239227 641.556519,373.257721 643.146606,375.538208 
	C646.407959,380.215637 646.779785,382.291382 642.655823,386.402374 
	C639.419250,389.628754 638.152771,392.182129 640.172668,397.124054 
	C642.030457,401.669586 641.585144,407.270599 641.646545,412.412720 
	C641.779846,423.566986 640.980347,434.765686 641.720886,445.868958 
	C642.323364,454.902374 644.340942,463.880249 646.211548,472.781769 
	C649.658569,489.184906 653.458435,505.513855 657.243408,522.465332 
	C655.582764,522.619751 654.207336,522.747681 651.964661,522.881470 
	C647.394409,522.956299 643.691406,523.025208 639.988342,523.094116 
	C638.721069,522.075928 636.766479,521.309021 636.288940,520.002319 
	C628.205017,497.879822 619.869263,475.831604 612.597900,453.439423 
	C610.024536,445.514618 610.077942,436.723083 609.053223,428.312500 
	C607.668152,416.944916 606.399902,405.563110 604.283020,394.031311 
	C601.624817,400.728699 598.915344,407.406281 596.320923,414.128296 
	C592.743652,423.396545 588.971008,432.604645 585.844177,442.025085 
	C584.267761,446.774414 583.099854,451.947601 583.176575,456.907013 
	C583.493591,477.379669 584.384949,497.843109 584.968506,518.312683 
	C585.015442,519.957947 584.327454,521.624146 583.095947,523.287598 
	C578.451477,523.260986 574.691895,523.227356 570.932373,523.193726 
	C568.806396,523.031067 566.680481,522.868469 564.197083,522.678467 
	C562.468750,507.054962 560.763428,491.553497 559.035583,476.054535 
	C558.150940,468.119293 557.458496,460.153320 556.262512,452.264374 
	C554.618286,441.418243 557.988647,431.148956 559.389038,420.657135 
	C561.566345,404.345764 564.009460,388.069550 566.124878,371.750549 
	C566.768616,366.784576 566.703918,361.726807 567.317383,356.042847 
	C571.827454,357.061951 575.785889,357.051483 579.390747,354.008331 
z"/>
<path fill="#E6E6E6" opacity="1.000000" stroke="none" 
	d="
M539.196533,230.545746 
	C541.879822,231.042191 544.563110,231.538635 547.638123,232.148056 
	C548.020996,286.088318 548.013428,339.915619 548.002014,393.742920 
	C547.999939,403.524841 542.645203,408.911316 532.682983,408.976959 
	C521.518066,409.050507 510.352264,408.997833 499.186829,408.995880 
	C461.691071,408.989380 424.195312,408.981018 386.121521,408.518250 
	C385.616455,405.066406 385.689484,402.069672 386.249817,399.050537 
	C398.551849,399.018555 410.368408,399.126404 422.180298,398.939209 
	C426.627930,398.868774 431.123627,398.431274 435.496460,397.618225 
	C456.010986,393.803925 474.671936,385.865448 491.264893,372.961090 
	C506.096680,361.426453 517.763794,347.315704 526.015381,330.626770 
	C535.180481,312.090210 539.088440,292.176392 539.010620,271.472504 
	C538.959351,257.830688 539.126953,244.188034 539.196533,230.545746 
z"/>
<path fill="#E6E6E6" opacity="1.000000" stroke="none" 
	d="
M382.972168,409.004059 
	C300.033600,409.001495 217.095001,409.018921 134.156509,408.924866 
	C130.751877,408.921021 127.107643,408.457520 123.995354,407.182343 
	C117.822380,404.653076 116.035065,399.088104 116.023811,392.908173 
	C115.987709,373.089935 116.042664,353.271515 116.536797,332.892517 
	C119.955902,332.390045 122.900703,332.448242 125.891922,333.018738 
	C125.958023,350.172241 125.979599,366.813477 125.996689,383.454681 
	C126.007919,394.387421 130.688614,398.997833 141.831696,398.998016 
	C222.210419,398.999329 302.589142,398.995300 383.051086,399.441498 
	C383.080292,402.928040 383.026245,405.966064 382.972168,409.004059 
z"/>
<path fill="#E3E4E4" opacity="1.000000" stroke="none" 
	d="
M547.928589,204.741913 
	C545.177185,204.936020 542.455078,204.647064 539.365723,203.853500 
	C538.981445,202.897629 538.964478,202.446350 538.960205,201.526901 
	C538.978638,196.559509 538.989319,192.060272 538.989502,187.561050 
	C538.990845,151.067123 538.947937,114.573120 539.020203,78.079338 
	C539.038025,69.048317 535.118713,61.597992 523.167358,61.785805 
	C491.014862,62.291077 458.848480,61.916561 426.588928,61.453285 
	C426.576416,58.029449 426.662659,55.043640 426.748901,52.057827 
	C462.706451,52.039513 498.664032,52.001987 534.621582,52.017757 
	C542.606750,52.021259 547.999268,57.489811 547.998169,65.422302 
	C547.992065,111.701149 547.972839,157.979996 547.928589,204.741913 
z"/>
<path fill="#1DBA14" opacity="1.000000" stroke="none" 
	d="
M445.881042,431.011230 
	C448.518555,422.277618 454.711700,419.482635 463.401093,419.652069 
	C479.359619,419.963226 495.330933,419.577576 511.291931,419.816345 
	C522.571777,419.985107 528.634033,430.332764 523.172668,439.570160 
	C520.417236,444.230804 515.977783,445.794159 510.912842,445.812286 
	C494.117096,445.872467 477.320709,445.882324 460.525116,445.798584 
	C452.559662,445.758881 448.598450,442.371552 446.124756,433.326935 
	C445.990387,432.107880 445.935730,431.559570 445.881042,431.011230 
z"/>
<path fill="#313041" opacity="1.000000" stroke="none" 
	d="
M586.939758,171.976471 
	C585.196167,164.775070 584.930664,157.506287 590.230896,151.815781 
	C592.493042,149.387054 596.643127,148.605988 600.049744,147.399475 
	C601.828918,146.769348 603.895935,147.007431 605.764832,146.565460 
	C614.116028,144.590515 620.844299,148.072784 623.992065,156.016815 
	C624.719604,157.852905 625.280518,160.179184 626.696899,161.244034 
	C632.532410,165.631165 630.449890,170.642685 627.882568,175.329971 
	C625.954529,178.850067 623.016479,181.816925 620.157104,184.674683 
	C621.180725,180.820755 623.183655,177.430191 623.828125,173.798569 
	C624.806152,168.286804 621.398254,166.185074 616.134949,167.725906 
	C611.906006,168.963959 607.395020,169.285721 602.988037,169.848663 
	C600.882324,170.117645 599.721680,169.319305 601.273804,166.970520 
	C601.560425,166.731812 601.595154,166.540802 601.629883,166.349792 
	C601.346497,166.499222 601.063049,166.648651 600.368469,166.722046 
	C598.206238,166.962448 596.407654,167.120712 594.714844,167.630554 
	C591.827148,168.500351 588.022766,167.848633 586.939758,171.976471 
z"/>
<path fill="#E6E6E6" opacity="1.000000" stroke="none" 
	d="
M668.730469,270.440491 
	C668.198792,269.186279 667.667175,267.932098 667.123718,266.331604 
	C682.902832,264.106537 698.798218,261.838745 714.441956,266.182373 
	C726.730530,269.594452 733.902649,280.446136 728.275818,292.034637 
	C724.685486,299.428955 717.851624,303.638397 709.743713,304.912872 
	C699.321960,306.551025 688.797302,307.525452 678.355591,309.050201 
	C674.126221,309.667847 669.998596,310.982849 665.432983,311.992950 
	C665.380432,311.123291 665.719666,310.241180 666.696716,309.151611 
	C678.156677,307.625275 689.009338,306.513733 699.791809,304.925262 
	C709.291565,303.525787 717.253906,296.489471 718.892517,288.751099 
	C720.700378,280.213287 714.342041,270.880981 703.715210,269.357452 
	C693.104187,267.836182 682.195740,268.337860 671.414307,268.150452 
	C670.533264,268.135132 669.625732,269.641327 668.730469,270.440491 
z"/>
<path fill="#F7B6B8" opacity="1.000000" stroke="none" 
	d="
M586.921082,172.371155 
	C588.022766,167.848633 591.827148,168.500351 594.714844,167.630554 
	C596.407654,167.120712 598.206238,166.962448 600.429199,166.776855 
	C600.901184,166.907684 601.021851,167.018234 601.021851,167.018234 
	C599.721680,169.319305 600.882324,170.117645 602.988037,169.848663 
	C607.395020,169.285721 611.906006,168.963959 616.134949,167.725906 
	C621.398254,166.185074 624.806152,168.286804 623.828125,173.798569 
	C623.183655,177.430191 621.180725,180.820755 619.797607,184.702759 
	C613.405090,189.034042 606.842163,191.416794 599.253235,188.253036 
	C592.208984,185.316360 588.241272,180.143555 586.921082,172.371155 
z"/>
<path fill="#575862" opacity="1.000000" stroke="none" 
	d="
M426.639465,51.594818 
	C426.662659,55.043640 426.576416,58.029449 426.486389,61.921658 
	C426.467468,71.131058 426.413025,79.434219 426.445435,87.737045 
	C426.514801,105.495499 426.629150,123.253792 426.605225,141.406296 
	C426.564941,142.888107 426.644531,143.975769 426.601562,145.267853 
	C426.478973,145.472260 426.434418,145.946869 426.151917,145.957428 
	C425.312073,145.889175 424.754700,145.810349 424.171051,145.440613 
	C424.094055,144.766006 424.043365,144.382355 424.070007,143.535492 
	C424.160370,136.273865 424.203796,129.475342 424.180847,122.677055 
	C424.111511,102.122765 424.016418,81.568558 424.032135,60.572395 
	C424.077515,57.418861 424.022125,54.707249 423.966736,51.995640 
	C423.966766,39.387863 423.966766,26.780087 423.966766,13.625353 
	C448.822388,13.625353 472.948639,13.625353 497.534912,13.638179 
	C498.008698,14.213804 498.022491,14.776604 497.985260,15.618395 
	C474.324280,15.897387 450.714294,15.897387 426.530060,15.897387 
	C426.530060,27.956137 426.530060,39.543972 426.639465,51.594818 
z"/>
<path fill="#575862" opacity="1.000000" stroke="none" 
	d="
M125.845497,332.506470 
	C122.900703,332.448242 119.955902,332.390045 116.574799,332.390594 
	C104.528015,332.391052 92.917526,332.332764 80.882423,332.231079 
	C80.342010,331.722778 80.226212,331.257843 80.153877,330.434326 
	C91.818634,330.067596 103.439926,330.059448 115.974297,330.046600 
	C119.932266,329.991058 122.977165,329.940186 126.483429,329.968750 
	C157.108612,330.048157 187.272430,330.048157 217.579010,330.048157 
	C217.579010,312.920349 217.579010,296.497925 217.655838,279.664124 
	C217.680618,278.142487 217.628571,277.032227 217.649872,275.498840 
	C217.671204,273.076477 217.619186,271.077301 217.645325,268.685883 
	C217.662491,267.500916 217.601486,266.708130 217.617126,265.573547 
	C217.639450,264.071503 217.585114,262.911224 217.585129,261.569519 
	C217.639481,261.388031 217.544891,261.018799 217.817307,261.064331 
	C218.780350,261.382019 219.470993,261.654175 220.071503,262.301941 
	C220.016357,263.446014 220.051331,264.214539 220.011749,265.382965 
	C219.999069,266.863159 220.060959,267.943451 220.040878,269.452576 
	C220.006012,271.914581 220.053116,273.947693 220.027008,276.380981 
	C220.007477,277.861420 220.061127,278.941650 220.032776,280.482910 
	C219.950760,297.854401 219.950760,314.764923 219.950760,332.244537 
	C212.161697,332.244537 204.897278,332.224640 197.632980,332.248199 
	C173.703796,332.325806 149.774658,332.419159 125.845497,332.506470 
z"/>
<path fill="#3A3848" opacity="1.000000" stroke="none" 
	d="
M582.475952,542.627319 
	C583.436707,543.643494 585.087219,544.574097 585.226013,545.692322 
	C585.608459,548.773743 585.358215,551.933655 585.358215,555.399719 
	C574.855164,555.399719 564.711975,555.399719 554.546997,555.399719 
	C555.175598,548.073364 557.445740,545.481934 563.722351,543.445557 
	C566.452087,542.559998 568.852356,540.658875 572.066895,539.101196 
	C575.979675,540.198059 579.227783,541.412659 582.475952,542.627319 
z"/>
<path fill="#3A3848" opacity="1.000000" stroke="none" 
	d="
M651.482910,542.643921 
	C652.511230,543.779846 654.234741,544.809631 654.427490,546.073059 
	C654.870361,548.975647 654.567871,551.992004 654.567871,555.350830 
	C644.104980,555.350830 633.933655,555.350830 623.759888,555.349487 
	C624.111816,548.412720 626.579590,545.516174 632.757751,543.526245 
	C635.479980,542.649475 637.854431,540.693054 641.056641,539.114380 
	C644.978577,540.215942 648.230713,541.429932 651.482910,542.643921 
z"/>
<path fill="#575862" opacity="1.000000" stroke="none" 
	d="
M445.424438,430.984741 
	C445.935730,431.559570 445.990387,432.107880 446.024780,432.929138 
	C425.264099,433.202087 404.523682,433.202087 383.152496,433.202087 
	C383.152496,425.116425 383.152496,417.521301 383.062347,409.465118 
	C383.026245,405.966064 383.080292,402.928040 383.145020,398.981293 
	C383.103180,386.717560 383.050690,375.362579 383.089020,363.701538 
	C383.208496,362.973053 383.237091,362.550690 383.524414,362.076904 
	C384.307800,362.002045 384.832428,361.978607 385.379517,362.424438 
	C385.522156,374.953491 385.642303,387.013214 385.762482,399.072968 
	C385.689484,402.069672 385.616455,405.066406 385.636047,408.503479 
	C385.728638,416.078888 385.728638,423.213898 385.728638,430.958282 
	C405.486481,430.958282 425.227142,430.958282 445.424438,430.984741 
z"/>
<path fill="#E3E4E4" opacity="1.000000" stroke="none" 
	d="
M646.318115,316.147186 
	C647.058594,318.236938 647.402649,320.605347 648.630676,322.352386 
	C650.561279,325.098907 653.087341,327.426819 655.699341,330.018250 
	C655.200073,334.342316 652.988281,336.166138 648.021179,333.998596 
	C645.649658,331.194946 643.930847,328.690063 642.183960,326.144318 
	C641.788940,326.297577 640.911621,326.637970 640.034241,326.978363 
	C640.034241,325.748383 640.034241,324.518372 640.034241,322.813477 
	C636.628662,326.388611 634.143372,329.464417 631.107117,331.834442 
	C630.408081,332.380157 627.819336,330.504974 626.428772,329.379852 
	C630.223633,329.454010 632.601990,328.499207 634.176880,324.924347 
	C636.428284,319.814117 640.401184,316.484070 646.318115,316.147186 
z"/>
<path fill="#F7B6B8" opacity="1.000000" stroke="none" 
	d="
M639.973389,327.352600 
	C640.911621,326.637970 641.788940,326.297577 642.183960,326.144318 
	C643.930847,328.690063 645.649658,331.194946 647.672791,333.852692 
	C648.017883,335.663483 647.907410,337.341797 648.127136,338.975677 
	C648.850281,344.352356 647.184814,346.820740 641.395752,348.111328 
	C640.289062,348.119629 639.562256,348.139862 638.310669,347.860535 
	C634.442322,344.874603 633.333862,341.380310 634.050537,337.226379 
	C636.004517,334.059875 637.958496,330.893341 639.973389,327.352600 
z"/>
<path fill="#F7B6B8" opacity="1.000000" stroke="none" 
	d="
M582.628296,542.135742 
	C579.227783,541.412659 575.979675,540.198059 572.366943,538.916626 
	C571.650208,533.926636 571.298035,529.003479 570.939087,523.637024 
	C574.691895,523.227356 578.451477,523.260986 582.665161,523.422241 
	C583.006470,529.581299 582.893494,535.612671 582.628296,542.135742 
z"/>
<path fill="#F7B6B8" opacity="1.000000" stroke="none" 
	d="
M651.637268,542.151489 
	C648.230713,541.429932 644.978577,540.215942 641.358215,538.932861 
	C640.655884,533.904602 640.321716,528.945496 639.987915,523.540222 
	C643.691406,523.025208 647.394409,522.956299 651.551514,522.973755 
	C651.934265,529.259766 651.862976,535.459412 651.637268,542.151489 
z"/>
<path fill="#E3E4E4" opacity="1.000000" stroke="none" 
	d="
M620.027710,197.380066 
	C616.906250,197.976501 613.790405,198.303070 610.666992,198.413483 
	C608.070129,198.505280 605.449158,198.145142 602.866150,198.342407 
	C599.513367,198.598450 596.187683,199.208542 592.406860,199.703430 
	C595.472168,193.176590 601.459290,190.132797 608.446716,191.290405 
	C611.169861,191.741547 614.097900,191.606262 616.581604,192.608276 
	C618.080078,193.212799 618.903381,195.490662 620.027710,197.380066 
z"/>
<path fill="#E3E4E4" opacity="1.000000" stroke="none" 
	d="
M579.025146,353.876526 
	C575.785889,357.051483 571.827454,357.061951 567.317749,355.643799 
	C566.679443,353.734985 566.394592,351.556946 566.162598,348.953674 
	C570.363403,350.267212 574.511475,352.005981 579.025146,353.876526 
z"/>
<path fill="#575862" opacity="1.000000" stroke="none" 
	d="
M498.925354,17.822210 
	C499.020386,17.819942 499.098175,18.000687 499.068970,18.019907 
	C499.039764,18.039127 498.851959,18.095203 498.851959,18.095203 
	C498.851959,18.095203 498.830292,17.824478 498.925354,17.822210 
z"/>
<path fill="#E6E6E6" opacity="1.000000" stroke="none" 
	d="
M80.240662,333.927612 
	C80.053383,333.814331 80.025612,333.637878 80.159058,333.247620 
	C80.418236,333.222687 80.539177,333.404510 80.600235,333.604645 
	C80.618721,333.665253 80.471481,333.776428 80.240662,333.927612 
z"/>
<path fill="#E6E6E6" opacity="1.000000" stroke="none" 
	d="
M79.411812,336.767517 
	C79.225914,336.585663 79.249512,336.201477 79.497391,335.623566 
	C79.688217,335.808289 79.654762,336.186737 79.411812,336.767517 
z"/>
<path fill="#E6E6E6" opacity="1.000000" stroke="none" 
	d="
M77.092331,340.795593 
	C76.972946,340.561157 77.130669,340.205414 77.557022,339.723053 
	C77.673592,339.955719 77.521507,340.315002 77.092331,340.795593 
z"/>
<path fill="#E6E6E6" opacity="1.000000" stroke="none" 
	d="
M78.390594,338.845459 
	C78.276802,338.660492 78.365646,338.352081 78.689796,337.950897 
	C78.946205,338.196716 78.835587,338.484680 78.390594,338.845459 
z"/>
<path fill="#E6E6E6" opacity="1.000000" stroke="none" 
	d="
M126.022057,329.889343 
	C122.977165,329.940186 119.932266,329.991058 116.436348,329.968597 
	C115.990517,243.127014 116.108299,156.358398 115.863716,69.590828 
	C115.831795,58.268284 122.234337,51.760609 133.751678,51.801899 
	C230.178162,52.147583 326.606415,51.998768 423.500427,51.997314 
	C424.022125,54.707249 424.077515,57.418861 423.568237,60.575428 
	C331.035858,61.021473 239.068100,61.022488 147.100342,61.024273 
	C145.600922,61.024303 144.094772,60.942883 142.603149,61.053246 
	C131.296036,61.889835 126.005936,66.622391 126.005486,75.978371 
	C126.001434,160.615356 126.014206,245.252350 126.022057,329.889343 
z"/>
<path fill="#FFFFFF" opacity="1.000000" stroke="none" 
	d="
M126.483429,329.968750 
	C126.014206,245.252350 126.001434,160.615356 126.005486,75.978371 
	C126.005936,66.622391 131.296036,61.889835 142.603149,61.053246 
	C144.094772,60.942883 145.600922,61.024303 147.100342,61.024273 
	C239.068100,61.022488 331.035858,61.021473 423.467468,61.017349 
	C424.016418,81.568558 424.111511,102.122765 424.180847,122.677055 
	C424.203796,129.475342 424.160370,136.273865 423.720551,143.548752 
	C422.529480,144.675217 421.765137,145.325226 420.863831,146.100723 
	C420.726868,146.226212 420.358032,146.181274 420.092590,146.164032 
	C419.558075,146.360748 419.289062,146.574707 418.834595,146.928345 
	C418.649200,147.068039 418.187103,147.113312 417.794861,147.071747 
	C414.061707,147.327744 412.702637,149.153030 413.225403,152.612549 
	C413.215637,152.788635 412.935242,153.002625 412.471375,152.995010 
	C404.845673,152.997284 397.682312,152.917709 390.522522,153.042877 
	C383.696716,153.162186 381.996552,154.973358 381.993256,161.651550 
	C381.988129,171.977921 381.989380,182.304306 381.991180,192.630676 
	C381.992462,200.141510 383.266083,201.844269 390.848755,201.906052 
	C413.665161,202.091980 436.484406,202.038605 459.301605,201.908875 
	C463.283539,201.886230 466.338226,199.808060 467.018250,195.526642 
	C468.103241,188.696030 469.013611,181.837677 470.400208,174.976196 
	C472.856934,175.658371 474.911316,176.355423 477.015503,177.404602 
	C477.163147,178.978653 476.920258,180.372192 477.431030,181.386063 
	C478.434753,183.378555 479.857544,185.159943 481.106934,187.028671 
	C490.624817,198.908646 500.106689,210.817963 509.717773,222.622055 
	C510.652832,223.770508 512.295349,224.674072 513.763550,225.002472 
	C521.996094,226.843872 530.276001,228.473770 538.868164,230.360825 
	C539.126953,244.188034 538.959351,257.830688 539.010620,271.472504 
	C539.088440,292.176392 535.180481,312.090210 526.015381,330.626770 
	C517.763794,347.315704 506.096680,361.426453 491.264893,372.961090 
	C474.671936,385.865448 456.010986,393.803925 435.496460,397.618225 
	C431.123627,398.431274 426.627930,398.868774 422.180298,398.939209 
	C410.368408,399.126404 398.551849,399.018555 386.249817,399.050537 
	C385.642303,387.013214 385.522156,374.953491 385.543152,362.412720 
	C385.684296,361.931702 386.003815,361.998749 386.294189,362.008942 
	C387.050842,361.722992 387.517151,361.426819 388.140839,360.997620 
	C388.298218,360.864563 388.709534,360.838226 388.985596,360.822754 
	C389.504578,360.544373 389.747498,360.281525 390.128143,359.742798 
	C391.174988,358.640900 392.084106,357.814850 393.238220,356.840454 
	C393.595734,356.340179 393.708252,355.988251 393.842590,355.450439 
	C393.864380,355.264557 394.142090,355.013611 394.426147,354.985168 
	C394.797913,354.308258 394.885590,353.659821 394.942688,352.667786 
	C395.001953,351.875061 395.091766,351.425934 395.425446,350.695618 
	C396.310791,347.846161 395.686279,345.168304 399.006042,343.306061 
	C409.967316,337.157288 415.222839,325.785675 412.826782,312.765503 
	C410.725433,301.347137 403.073883,294.639069 392.075256,291.558929 
	C380.151367,288.219696 365.437775,295.377258 360.617035,306.612640 
	C355.522034,318.487061 356.987885,332.051147 369.967285,342.358795 
	C370.308655,345.601288 370.592133,348.294098 370.990845,351.303619 
	C371.137299,352.066467 371.168579,352.512634 370.946014,353.097046 
	C371.093872,353.826813 371.495605,354.418274 372.032532,355.131836 
	C372.167786,355.253937 372.193085,355.617462 372.201599,355.907104 
	C372.479401,356.457367 372.748688,356.718018 373.008972,356.989319 
	C373.000000,357.000000 373.020599,356.982666 373.067413,357.219360 
	C373.270355,357.765564 373.518005,357.956177 374.128723,358.148865 
	C374.943604,358.833313 375.486938,359.396729 376.153351,360.210663 
	C376.611389,360.590668 376.946289,360.720154 377.486755,360.863647 
	C377.692322,360.877625 378.013519,361.135712 378.211487,361.357086 
	C378.791870,361.613068 379.174286,361.647675 379.810425,361.667480 
	C380.373718,361.784241 380.683350,361.915771 381.033051,362.362488 
	C381.714813,363.120941 382.356506,363.564270 382.998169,364.007599 
	C383.050690,375.362579 383.103180,386.717560 383.061768,398.532745 
	C302.589142,398.995300 222.210419,398.999329 141.831696,398.998016 
	C130.688614,398.997833 126.007919,394.387421 125.996689,383.454681 
	C125.979599,366.813477 125.958023,350.172241 125.891922,333.018738 
	C149.774658,332.419159 173.703796,332.325806 197.632980,332.248199 
	C204.897278,332.224640 212.161697,332.244537 219.950760,332.244537 
	C219.950760,314.764923 219.950760,297.854401 220.493683,280.476654 
	C233.640305,280.007141 246.245087,280.082581 258.846313,279.904633 
	C260.430481,279.882294 261.995819,278.525269 263.569885,277.786621 
	C262.015289,277.193298 260.466339,276.102753 258.905212,276.085022 
	C245.971497,275.938019 233.035507,275.989441 220.100220,275.980835 
	C220.053116,273.947693 220.006012,271.914581 220.501251,269.447327 
	C235.283508,269.013214 249.523407,269.013214 263.763336,269.013214 
	C263.873566,268.169800 263.983795,267.326355 264.093994,266.482941 
	C262.356079,265.995697 260.622253,265.103638 258.879517,265.085846 
	C245.949448,264.953918 233.017609,264.995758 220.086319,264.983032 
	C220.051331,264.214539 220.016357,263.446014 220.392181,262.147339 
	C223.099854,260.691528 225.396744,259.765900 228.145615,258.893402 
	C238.847977,258.637573 249.099350,258.355774 259.347382,257.983002 
	C260.542664,257.939514 261.719635,257.392822 262.905060,257.079437 
	C262.851227,256.542511 262.797363,256.005554 262.743530,255.468643 
	C261.074890,255.308304 259.407257,255.022949 257.737427,255.009537 
	C250.933792,254.954865 244.123489,255.126892 237.331253,254.842529 
	C236.176651,254.794189 234.506958,253.101974 234.119919,251.847031 
	C233.496872,249.826950 234.056000,247.805908 237.012253,247.989319 
	C238.002670,248.050751 239.002411,247.962112 240.466476,247.959778 
	C247.065796,247.981247 253.200775,248.110962 259.324371,247.904083 
	C260.943085,247.849396 262.526764,246.757065 264.126526,246.141205 
	C263.944946,245.436371 263.763397,244.731537 263.581818,244.026703 
	C255.721008,244.026703 247.860199,244.026703 239.572021,244.017349 
	C233.148666,245.443405 231.093323,240.593353 227.658066,236.999924 
	C237.976059,236.999924 247.782349,237.000351 257.588654,236.999359 
	C258.752472,236.999237 260.004364,237.258057 261.055145,236.911240 
	C262.085327,236.571198 262.910919,235.611282 263.826294,234.923401 
	C262.857361,234.289520 261.938721,233.546829 260.899017,233.065994 
	C260.349640,232.811951 259.589386,233.010529 258.924347,233.010529 
	C234.317276,233.010300 209.710190,233.010742 185.103119,233.011139 
	C184.770584,233.011154 184.392456,232.907516 184.113281,233.029709 
	C182.781372,233.612640 181.476364,234.256973 180.161789,234.879456 
	C181.559937,235.585815 182.929688,236.824951 184.361420,236.901245 
	C189.169434,237.157440 193.999542,236.999191 198.821198,236.999359 
	C202.913055,236.999512 207.004913,236.999390 211.021255,236.999390 
	C210.704102,239.060684 210.461670,240.636459 210.137634,242.096130 
	C210.056061,241.980026 210.233643,242.203430 209.888824,242.178268 
	C208.363098,242.775482 207.182159,243.397873 205.532516,244.010544 
	C198.089584,243.999863 191.112106,243.889786 184.144135,244.097885 
	C182.880402,244.135635 181.655579,245.476410 180.412781,246.215637 
	C181.637543,246.808121 182.852005,247.886932 184.088760,247.913101 
	C191.391586,248.067780 198.699600,247.977753 206.021957,248.360931 
	C207.226685,254.259552 206.696838,254.913773 200.814392,254.980804 
	C197.154968,255.022507 193.494659,254.987885 189.834747,254.987717 
	C186.651108,254.987564 183.467468,254.987671 180.283813,254.987671 
	C180.153564,255.787827 180.023315,256.587982 179.893051,257.388123 
	C181.749680,257.916534 183.575455,258.705841 185.468079,258.929565 
	C195.311462,260.093048 205.637726,256.364838 215.081406,261.890106 
	C215.669418,262.234161 216.703979,261.815033 217.530777,261.750977 
	C217.585114,262.911224 217.639450,264.071503 217.202637,265.582855 
	C206.791748,265.633240 196.873230,265.223358 186.951385,265.112732 
	C184.629272,265.086853 182.295853,266.074799 179.967636,266.596283 
	C180.061615,267.423553 180.155594,268.250824 180.249557,269.078094 
	C192.688766,269.078094 205.127960,269.078094 217.567154,269.078094 
	C217.619186,271.077301 217.671204,273.076477 217.209625,275.517914 
	C206.037659,275.979889 195.378082,275.924286 184.722275,276.099396 
	C183.095032,276.126129 181.485321,277.219635 179.867508,277.819763 
	C180.050446,278.571686 180.233383,279.323608 180.416336,280.075531 
	C192.803894,280.075531 205.191452,280.075531 217.579010,280.075531 
	C217.579010,296.497925 217.579010,312.920349 217.579010,330.048157 
	C187.272430,330.048157 157.108612,330.048157 126.483429,329.968750 
M221.500000,136.006409 
	C211.674210,136.006332 201.848007,135.951401 192.022766,136.024872 
	C185.117905,136.076492 180.369263,139.331161 180.009033,145.888123 
	C179.244263,159.808243 178.832062,173.797394 179.341156,187.719269 
	C179.648239,196.116867 184.294800,199.802475 192.860687,199.903320 
	C212.675964,200.136627 232.497635,200.129211 252.312958,199.897400 
	C259.871216,199.808975 264.007141,194.970337 264.012207,187.401764 
	C264.020721,174.744858 264.014343,162.087936 264.012207,149.431030 
	C264.010559,139.851669 260.237061,136.069580 250.478378,136.015213 
	C241.152527,135.963272 231.826141,136.005569 221.500000,136.006409 
M422.500000,220.984390 
	C428.329041,220.984390 434.159363,221.056335 439.986664,220.955460 
	C443.122253,220.901184 446.276917,220.723312 449.379150,220.288452 
	C452.998993,219.781036 454.489197,217.405746 453.939911,213.855820 
	C453.411285,210.439835 450.908142,209.956192 447.995117,209.963181 
	C432.006958,210.001541 416.018341,209.939453 400.030914,210.054230 
	C398.569702,210.064728 396.516602,210.676163 395.805267,211.729263 
	C394.848022,213.146454 394.011963,216.137329 394.745697,216.907211 
	C396.496277,218.744049 399.124512,220.604538 401.528870,220.793396 
	C408.150085,221.313446 414.838318,220.980087 422.500000,220.984390 
M235.500000,226.012375 
	C243.493942,226.011002 251.489807,226.097641 259.480011,225.923965 
	C260.855591,225.894073 262.207123,224.757416 263.569763,224.132004 
	C262.285522,223.427002 261.004211,222.113174 259.716614,222.106995 
	C234.569595,221.986221 209.421722,221.986679 184.274597,222.096512 
	C182.787994,222.102997 181.306335,223.239822 179.822372,223.850632 
	C180.010452,224.570786 180.198532,225.290939 180.386612,226.011093 
	C198.424408,226.011093 216.462204,226.011093 235.500000,226.012375 
M335.403870,186.950104 
	C316.706726,191.268311 297.806427,194.805542 279.542175,200.787933 
	C286.678772,202.640854 345.467163,188.337799 348.202362,184.060242 
	C343.757874,185.072647 339.988953,185.931168 335.403870,186.950104 
M341.561340,261.931793 
	C334.068298,250.733871 326.079315,242.717987 321.587158,242.765411 
	C329.373932,252.074738 336.819092,260.975647 344.661987,270.352112 
	C336.283722,274.366394 327.302979,274.019226 320.322052,279.019562 
	C326.503662,278.623108 332.419495,277.426300 338.263763,275.946777 
	C348.553070,273.341919 349.355347,270.319763 341.561340,261.931793 
M362.909210,189.453522 
	C357.528412,193.794617 352.147583,198.135712 345.812347,203.246796 
	C348.045288,203.647018 348.697601,203.970764 348.942688,203.777634 
	C355.033203,198.978195 361.382141,194.443665 367.003265,189.139404 
	C369.647827,186.643951 367.999329,183.462463 364.751770,181.927917 
	C356.072144,177.826553 347.353912,173.804459 338.593933,169.878265 
	C337.384369,169.336166 335.851349,169.515762 334.468079,169.361237 
	C334.365814,169.830170 334.263519,170.299118 334.161255,170.768051 
	C335.555176,171.499710 336.923370,172.286163 338.347290,172.953873 
	C345.963257,176.525223 353.636047,179.979446 361.189270,183.678177 
	C363.165649,184.646011 366.554901,185.607300 362.909210,189.453522 
M289.552307,250.986908 
	C286.944305,250.646561 284.336273,250.306213 281.728271,249.965866 
	C286.637970,255.041901 324.445343,264.457062 329.139008,261.357391 
	C316.227264,257.906891 303.315491,254.456406 289.552307,250.986908 
z"/>
<path fill="#FFFFFF" opacity="1.000000" stroke="none" 
	d="
M426.725037,141.012146 
	C426.629150,123.253792 426.514801,105.495499 426.445435,87.737045 
	C426.413025,79.434219 426.467468,71.131058 426.585083,62.359680 
	C458.848480,61.916561 491.014862,62.291077 523.167358,61.785805 
	C535.118713,61.597992 539.038025,69.048317 539.020203,78.079338 
	C538.947937,114.573120 538.990845,151.067123 538.989502,187.561050 
	C538.989319,192.060272 538.978638,196.559509 538.589722,201.528351 
	C536.802551,202.535645 535.398438,203.073318 533.994324,203.610977 
	C529.930725,203.130112 525.867126,202.649246 521.455811,201.651855 
	C523.023010,194.417343 522.004822,193.357101 515.617798,194.340057 
	C514.432312,194.522522 511.761292,192.325134 511.673798,191.091522 
	C511.322693,186.141144 507.105713,178.935867 502.444702,178.247665 
	C497.963959,177.586075 497.325317,175.093536 496.868073,171.501740 
	C496.708679,170.249725 494.564636,168.042450 494.142303,168.219223 
	C490.045197,169.934189 488.250763,167.411301 486.088348,164.727997 
	C484.580597,162.856979 482.528748,161.265579 480.416992,160.096390 
	C479.023895,159.325089 476.564117,157.580048 475.540161,161.167664 
	C474.099548,160.991409 473.049530,160.877808 471.946472,160.438141 
	C469.605743,158.738083 467.318054,157.364075 464.699402,155.816193 
	C462.393372,154.766861 460.476837,153.355942 458.430511,153.132126 
	C454.660614,152.719788 450.814392,153.004913 447.000000,152.561401 
	C446.404053,150.103195 446.121857,146.509247 445.161346,146.317749 
	C438.846466,145.058823 432.426208,144.383881 426.725037,141.012146 
z"/>
<path fill="#FBFBFC" opacity="1.000000" stroke="none" 
	d="
M646.562134,315.891693 
	C640.401184,316.484070 636.428284,319.814117 634.176880,324.924347 
	C632.601990,328.499207 630.223633,329.454010 626.336792,329.026489 
	C621.257019,326.230591 616.761780,323.094818 611.908997,320.676605 
	C594.471252,311.986938 592.308655,294.026520 607.361145,281.375000 
	C616.102173,274.028198 626.915283,271.957916 637.644287,269.848633 
	C638.754272,269.630432 640.623657,270.973145 641.461365,272.097626 
	C644.123291,275.670837 646.463745,279.483490 648.739624,283.835114 
	C641.443970,285.910980 634.337158,287.355408 627.230286,288.799835 
	C627.411133,289.687683 627.591980,290.575562 627.772827,291.463440 
	C635.552185,289.957672 643.331604,288.451935 651.110962,286.946198 
	C652.202576,289.128998 653.294189,291.311798 653.752075,293.750061 
	C645.083679,295.512238 637.049011,297.019012 629.014282,298.525787 
	C629.127991,299.176086 629.241638,299.826385 629.355347,300.476685 
	C637.420776,301.131165 645.090271,298.271332 652.937500,296.989227 
	C650.893738,303.204895 648.849915,309.420532 646.562134,315.891693 
M641.186279,307.501984 
	C637.428040,306.327301 634.174438,307.291626 631.137695,309.175140 
	C631.300781,309.874176 631.463867,310.573242 631.626953,311.272278 
	C634.823059,310.259674 638.019165,309.247070 641.186279,307.501984 
z"/>
<path fill="#FDFDFD" opacity="1.000000" stroke="none" 
	d="
M668.826538,270.778900 
	C669.625732,269.641327 670.533264,268.135132 671.414307,268.150452 
	C682.195740,268.337860 693.104187,267.836182 703.715210,269.357452 
	C714.342041,270.880981 720.700378,280.213287 718.892517,288.751099 
	C717.253906,296.489471 709.291565,303.525787 699.791809,304.925262 
	C689.009338,306.513733 678.156677,307.625275 666.880188,308.928833 
	C668.966858,303.701691 671.507812,298.489838 674.703674,293.075928 
	C680.376465,291.951141 685.400085,291.057861 690.410828,290.097412 
	C695.242554,289.171173 700.620605,289.902435 704.472168,285.687408 
	C702.589294,285.193756 700.822266,285.218475 699.089478,285.474701 
	C691.436340,286.606628 683.793030,287.805145 676.146118,288.979523 
	C675.442322,287.224335 674.738525,285.469177 674.446777,283.354950 
	C684.247925,281.214111 693.636963,279.432373 703.025940,277.650604 
	C702.880066,276.776184 702.734131,275.901794 702.588196,275.027405 
	C692.537781,275.907684 682.704224,278.553070 672.738953,280.126678 
	C671.466858,277.123535 670.194702,274.120422 668.826538,270.778900 
z"/>
<path fill="#E3E4E4" opacity="1.000000" stroke="none" 
	d="
M633.669678,337.135406 
	C633.333862,341.380310 634.442322,344.874603 637.949219,347.887329 
	C633.042358,356.130463 624.642944,356.214294 616.686218,357.267853 
	C606.848633,358.570404 596.920898,360.647339 587.553955,354.402649 
	C590.484802,352.751526 593.774963,351.671600 596.639771,349.902863 
	C599.433350,348.178131 601.663940,345.565369 604.374023,343.675690 
	C607.792358,341.292114 611.165955,340.356964 615.365784,342.994598 
	C618.114746,344.721100 621.909424,344.782410 625.497314,345.653015 
	C626.724792,341.025421 627.924377,336.953674 633.669678,337.135406 
z"/>
<path fill="#FDFDFD" opacity="1.000000" stroke="none" 
	d="
M475.930756,161.230316 
	C476.564117,157.580048 479.023895,159.325089 480.416992,160.096390 
	C482.528748,161.265579 484.580597,162.856979 486.088348,164.727997 
	C488.250763,167.411301 490.045197,169.934189 494.142303,168.219223 
	C494.564636,168.042450 496.708679,170.249725 496.868073,171.501740 
	C497.325317,175.093536 497.963959,177.586075 502.444702,178.247665 
	C507.105713,178.935867 511.322693,186.141144 511.673798,191.091522 
	C511.761292,192.325134 514.432312,194.522522 515.617798,194.340057 
	C522.004822,193.357101 523.023010,194.417343 521.055054,201.517136 
	C519.220520,201.319168 516.904114,201.262527 515.743408,200.075699 
	C507.485992,191.632660 499.464783,182.958618 491.009338,173.750641 
	C488.486237,172.737808 486.322174,172.332458 484.064606,171.597305 
	C481.290985,167.921768 478.610870,164.576035 475.930756,161.230316 
z"/>
<path fill="#E3E4E4" opacity="1.000000" stroke="none" 
	d="
M484.158112,171.927109 
	C486.322174,172.332458 488.486237,172.737808 490.822754,173.462738 
	C489.598236,176.277969 488.369659,178.889618 486.753906,181.234497 
	C485.328491,183.303192 483.470947,185.074127 481.455566,187.002609 
	C479.857544,185.159943 478.434753,183.378555 477.431030,181.386063 
	C476.920258,180.372192 477.163147,178.978653 477.362091,177.353424 
	C479.825256,175.275772 481.991669,173.601440 484.158112,171.927109 
z"/>
<path fill="#E6E6E6" opacity="1.000000" stroke="none" 
	d="
M676.004089,289.292816 
	C683.793030,287.805145 691.436340,286.606628 699.089478,285.474701 
	C700.822266,285.218475 702.589294,285.193756 704.472168,285.687408 
	C700.620605,289.902435 695.242554,289.171173 690.410828,290.097412 
	C685.400085,291.057861 680.376465,291.951141 674.913269,292.806305 
	C674.932678,291.694580 675.397400,290.650330 676.004089,289.292816 
z"/>
<path fill="#E7E7E7" opacity="1.000000" stroke="none" 
	d="
M672.799683,280.441650 
	C682.704224,278.553070 692.537781,275.907684 702.588196,275.027405 
	C702.734131,275.901794 702.880066,276.776184 703.025940,277.650604 
	C693.636963,279.432373 684.247925,281.214111 674.443970,282.999939 
	C673.639465,282.254852 673.249878,281.505768 672.799683,280.441650 
z"/>
<path fill="#E6E6E6" opacity="1.000000" stroke="none" 
	d="
M653.174194,296.760742 
	C645.090271,298.271332 637.420776,301.131165 629.355347,300.476685 
	C629.241638,299.826385 629.127991,299.176086 629.014282,298.525787 
	C637.049011,297.019012 645.083679,295.512238 653.531616,293.998077 
	C653.766907,294.837891 653.588867,295.685089 653.174194,296.760742 
z"/>
<path fill="#E7E7E7" opacity="1.000000" stroke="none" 
	d="
M651.040588,286.636017 
	C643.331604,288.451935 635.552185,289.957672 627.772827,291.463440 
	C627.591980,290.575562 627.411133,289.687683 627.230286,288.799835 
	C634.337158,287.355408 641.443970,285.910980 648.813965,284.172974 
	C649.708191,284.694824 650.339172,285.510345 651.040588,286.636017 
z"/>
<path fill="#FDFDFD" opacity="1.000000" stroke="none" 
	d="
M534.398193,203.738464 
	C535.398438,203.073318 536.802551,202.535645 538.577087,201.996521 
	C538.964478,202.446350 538.981445,202.897629 539.002319,203.687576 
	C537.604797,203.972824 536.203430,203.919403 534.398193,203.738464 
z"/>
<path fill="#F7B6B8" opacity="1.000000" stroke="none" 
	d="
M600.840454,166.852875 
	C601.063049,166.648651 601.346497,166.499222 601.629883,166.349792 
	C601.595154,166.540802 601.560425,166.731812 601.273804,166.970520 
	C601.021851,167.018234 600.901184,166.907684 600.840454,166.852875 
z"/>
<path fill="#22B81A" opacity="1.000000" stroke="none" 
	d="
M412.935242,153.002625 
	C412.935242,153.002625 413.215637,152.788635 413.506775,152.427322 
	C415.260956,150.415100 416.724030,148.764206 418.187103,147.113312 
	C418.187103,147.113312 418.649200,147.068039 419.106323,146.964539 
	C419.828339,146.634460 420.093170,146.407867 420.358032,146.181274 
	C420.358032,146.181274 420.726868,146.226212 421.262207,146.157257 
	C422.597473,145.969391 423.397400,145.850464 424.197357,145.731537 
	C424.754700,145.810349 425.312073,145.889175 426.505737,146.068939 
	C427.388672,146.175095 427.635345,146.180283 427.909637,146.115143 
	C427.937225,146.044830 427.835266,146.156311 427.938690,146.378052 
	C428.042114,146.599792 428.487396,146.801468 428.487396,146.801468 
	C428.487396,146.801468 428.968964,146.717621 429.193054,146.857132 
	C429.592346,147.012726 429.767578,147.028809 430.027496,147.268127 
	C430.342072,147.767044 430.630676,147.859390 431.155701,148.017700 
	C432.128418,148.894302 432.923401,149.521591 433.772797,150.440140 
	C434.222076,151.151764 434.616943,151.572144 435.032532,152.287003 
	C435.354187,153.065475 435.655151,153.549438 435.931763,154.462036 
	C436.005493,156.601273 436.103546,158.311920 436.080139,160.280609 
	C435.912567,160.912704 435.866486,161.286743 435.590942,161.801880 
	C435.322723,162.287872 435.283905,162.632797 435.100372,163.173523 
	C434.955627,163.369324 434.901855,163.853333 434.615417,163.998871 
	C433.218109,165.423248 432.107239,166.702087 430.996155,167.988983 
	C430.995972,167.997040 430.980042,167.992844 430.698334,168.014633 
	C430.172272,168.301193 429.927917,168.565964 429.483582,168.844772 
	C429.283600,168.858810 428.986816,169.128418 428.595001,169.096252 
	C422.470245,170.993042 417.957733,168.996475 414.118225,164.485809 
	C414.075745,164.273193 413.754883,163.981476 413.773438,163.734436 
	C413.673615,163.135025 413.430176,162.934296 413.053864,162.643539 
	C413.046051,162.401886 412.807007,161.981552 412.862061,161.690048 
	C412.728760,161.068024 412.540405,160.737503 412.406555,160.100098 
	C412.305725,159.194077 412.150330,158.594910 412.122528,157.651810 
	C412.478485,155.872803 412.706879,154.437714 412.935242,153.002625 
z"/>
<path fill="#FDFDFD" opacity="1.000000" stroke="none" 
	d="
M429.942841,147.044907 
	C429.767578,147.028809 429.592346,147.012726 429.064392,146.665054 
	C428.452179,146.113174 428.160034,146.054123 427.835266,146.156311 
	C427.835266,146.156311 427.937225,146.044830 427.822021,145.836990 
	C427.379272,145.440567 427.051697,145.251999 426.724121,145.063431 
	C426.644531,143.975769 426.564941,142.888107 426.605194,141.406296 
	C432.426208,144.383881 438.846466,145.058823 445.161346,146.317749 
	C446.121857,146.509247 446.404053,150.103195 446.624268,152.567154 
	C445.497162,153.029373 444.745850,153.047836 443.573853,153.047943 
	C440.754150,153.364212 438.355103,153.698822 435.956116,154.033417 
	C435.655151,153.549438 435.354187,153.065475 435.258057,152.095688 
	C434.881378,151.122864 434.299896,150.635864 433.718384,150.148865 
	C432.923401,149.521591 432.128418,148.894302 431.054077,147.812683 
	C430.550995,147.111816 430.273712,147.007339 429.942841,147.044907 
z"/>
<path fill="#E7E7E7" opacity="1.000000" stroke="none" 
	d="
M424.171051,145.440613 
	C423.397400,145.850464 422.597473,145.969391 421.399170,146.031769 
	C421.765137,145.325226 422.529480,144.675217 423.643250,144.011963 
	C424.043365,144.382355 424.094055,144.766006 424.171051,145.440613 
z"/>
<path fill="#E3E4E4" opacity="1.000000" stroke="none" 
	d="
M426.601562,145.267853 
	C427.051697,145.251999 427.379272,145.440567 427.794434,145.907318 
	C427.635345,146.180283 427.388672,146.175095 426.788208,146.058380 
	C426.434418,145.946869 426.478973,145.472260 426.601562,145.267853 
z"/>
<path fill="#22B81A" opacity="1.000000" stroke="none" 
	d="
M227.693619,258.840240 
	C225.396744,259.765900 223.099854,260.691528 220.482300,261.771759 
	C219.470993,261.654175 218.780350,261.382019 217.489685,260.888367 
	C208.492966,256.580994 206.533875,251.146545 210.233643,242.203430 
	C210.233643,242.203430 210.056061,241.980026 210.444901,241.947433 
	C214.146866,238.231110 218.062576,236.217667 223.124741,237.660141 
	C232.838272,240.428024 234.949203,250.267105 227.693619,258.840240 
z"/>
<path fill="#E7E7E7" opacity="1.000000" stroke="none" 
	d="
M220.011749,265.382965 
	C233.017609,264.995758 245.949448,264.953918 258.879517,265.085846 
	C260.622253,265.103638 262.356079,265.995697 264.093994,266.482941 
	C263.983795,267.326355 263.873566,268.169800 263.763336,269.013214 
	C249.523407,269.013214 235.283508,269.013214 220.583221,269.018463 
	C220.060959,267.943451 219.999069,266.863159 220.011749,265.382965 
z"/>
<path fill="#E7E7E7" opacity="1.000000" stroke="none" 
	d="
M220.027008,276.380981 
	C233.035507,275.989441 245.971497,275.938019 258.905212,276.085022 
	C260.466339,276.102753 262.015289,277.193298 263.569885,277.786621 
	C261.995819,278.525269 260.430481,279.882294 258.846313,279.904633 
	C246.245087,280.082581 233.640305,280.007141 220.575699,280.015686 
	C220.061127,278.941650 220.007477,277.861420 220.027008,276.380981 
z"/>
<path fill="#E5E9E4" opacity="1.000000" stroke="none" 
	d="
M209.888824,242.178268 
	C206.533875,251.146545 208.492966,256.580994 217.217255,260.842834 
	C217.544891,261.018799 217.639481,261.388031 217.585129,261.569489 
	C216.703979,261.815033 215.669418,262.234161 215.081406,261.890106 
	C205.637726,256.364838 195.311462,260.093048 185.468079,258.929565 
	C183.575455,258.705841 181.749680,257.916534 179.893051,257.388123 
	C180.023315,256.587982 180.153564,255.787827 180.283813,254.987671 
	C183.467468,254.987671 186.651108,254.987564 189.834747,254.987717 
	C193.494659,254.987885 197.154968,255.022507 200.814392,254.980804 
	C206.696838,254.913773 207.226685,254.259552 206.019531,247.966461 
	C206.001099,246.127518 206.001160,245.073883 206.001221,244.020264 
	C207.182159,243.397873 208.363098,242.775482 209.888824,242.178268 
z"/>
<path fill="#E3E4E4" opacity="1.000000" stroke="none" 
	d="
M217.655838,279.664124 
	C205.191452,280.075531 192.803894,280.075531 180.416336,280.075531 
	C180.233383,279.323608 180.050446,278.571686 179.867508,277.819763 
	C181.485321,277.219635 183.095032,276.126129 184.722275,276.099396 
	C195.378082,275.924286 206.037659,275.979889 217.136261,275.941040 
	C217.628571,277.032227 217.680618,278.142487 217.655838,279.664124 
z"/>
<path fill="#E3E4E4" opacity="1.000000" stroke="none" 
	d="
M217.645325,268.685883 
	C205.127960,269.078094 192.688766,269.078094 180.249557,269.078094 
	C180.155594,268.250824 180.061615,267.423553 179.967636,266.596283 
	C182.295853,266.074799 184.629272,265.086853 186.951385,265.112732 
	C196.873230,265.223358 206.791748,265.633240 217.125977,265.924683 
	C217.601486,266.708130 217.662491,267.500916 217.645325,268.685883 
z"/>
<path fill="#22B81A" opacity="1.000000" stroke="none" 
	d="
M392.993225,356.988800 
	C392.084106,357.814850 391.174988,358.640900 389.847290,359.755402 
	C389.188965,360.308655 388.949249,360.573456 388.709534,360.838257 
	C388.709534,360.838226 388.298218,360.864563 387.835083,360.947174 
	C386.915894,361.352783 386.459869,361.675781 386.003815,361.998779 
	C386.003815,361.998749 385.684296,361.931702 385.520691,361.943420 
	C384.832428,361.978607 384.307800,362.002045 383.149597,361.966095 
	C382.008301,361.953583 381.500641,362.000458 380.992950,362.047333 
	C380.683350,361.915771 380.373718,361.784241 379.614838,361.444397 
	C378.781555,361.202637 378.397522,361.169189 378.013519,361.135742 
	C378.013519,361.135712 377.692322,360.877625 377.377991,360.602020 
	C376.719177,360.204346 376.374725,360.082245 376.030243,359.960144 
	C375.486938,359.396729 374.943604,358.833313 374.111389,357.897156 
	C373.555206,357.343842 373.287903,357.163239 373.020599,356.982666 
	C373.020599,356.982666 373.000000,357.000000 372.996613,356.697266 
	C372.726501,356.135498 372.459808,355.876465 372.193085,355.617462 
	C372.193085,355.617462 372.167786,355.253937 372.076843,354.841736 
	C371.723907,353.939270 371.461884,353.449036 371.199860,352.958771 
	C371.168579,352.512634 371.137299,352.066467 371.088623,350.925690 
	C372.078735,347.259277 373.086212,344.287506 374.387512,341.224060 
	C375.118317,340.718384 375.555328,340.304474 376.261078,339.889160 
	C376.746796,339.622223 376.963806,339.356689 377.407654,339.074524 
	C377.634491,339.057831 378.012573,338.804810 378.294983,338.848022 
	C378.864166,338.665527 379.150940,338.439880 379.712280,338.242493 
	C380.328339,338.141754 380.669830,338.012787 381.402496,337.973724 
	C382.856903,337.999695 383.920166,337.935730 385.227203,338.000427 
	C385.832245,338.162231 386.193542,338.195404 386.712891,338.470215 
	C387.241791,338.754425 387.612610,338.796997 388.240082,339.027863 
	C389.575989,339.869293 390.655273,340.522369 391.865692,341.512146 
	C393.058441,344.891510 394.120056,347.934143 395.181641,350.976807 
	C395.091766,351.425934 395.001953,351.875061 394.700439,352.831604 
	C394.373199,353.897247 394.257629,354.455414 394.142090,355.013611 
	C394.142090,355.013611 393.864380,355.264557 393.581451,355.581238 
	C393.196747,356.261536 393.095001,356.625153 392.993225,356.988800 
z"/>
<path fill="#E5E9E4" opacity="1.000000" stroke="none" 
	d="
M381.033051,362.362488 
	C381.500641,362.000458 382.008301,361.953583 382.890839,362.017487 
	C383.237091,362.550690 383.208496,362.973053 383.089020,363.701538 
	C382.356506,363.564270 381.714813,363.120941 381.033051,362.362488 
z"/>
<path fill="#E7E7E7" opacity="1.000000" stroke="none" 
	d="
M222.000000,136.006409 
	C231.826141,136.005569 241.152527,135.963272 250.478378,136.015213 
	C260.237061,136.069580 264.010559,139.851669 264.012207,149.431030 
	C264.014343,162.087936 264.020721,174.744858 264.012207,187.401764 
	C264.007141,194.970337 259.871216,199.808975 252.312958,199.897400 
	C232.497635,200.129211 212.675964,200.136627 192.860687,199.903320 
	C184.294800,199.802475 179.648239,196.116867 179.341156,187.719269 
	C178.832062,173.797394 179.244263,159.808243 180.009033,145.888123 
	C180.369263,139.331161 185.117905,136.076492 192.022766,136.024872 
	C201.848007,135.951401 211.674210,136.006332 222.000000,136.006409 
M211.500031,197.015182 
	C222.496613,197.013306 233.493195,197.022293 244.489761,197.005936 
	C252.652313,196.993805 255.949539,193.735062 255.984802,185.521698 
	C256.032013,174.525330 256.021240,163.528549 255.986786,152.532089 
	C255.967209,146.285965 252.126175,142.110672 245.852676,142.064102 
	C228.192505,141.932999 210.529770,141.908752 192.870148,142.071594 
	C186.475189,142.130569 182.188034,146.416962 182.069763,152.786316 
	C181.862534,163.945587 181.824478,175.115829 182.080719,186.273087 
	C182.249390,193.617081 186.159180,197.004379 193.505386,197.016434 
	C199.170258,197.025742 204.835175,197.016327 211.500031,197.015182 
z"/>
<path fill="#E7E7E7" opacity="1.000000" stroke="none" 
	d="
M443.994507,153.066284 
	C444.745850,153.047836 445.497162,153.029373 446.624268,153.005157 
	C450.814392,153.004913 454.660614,152.719788 458.430511,153.132126 
	C460.476837,153.355942 462.393372,154.766861 464.726379,156.169800 
	C465.722473,158.453125 466.360626,160.208969 466.838074,162.303925 
	C463.524109,168.099487 464.123840,170.329712 469.997833,174.991058 
	C469.013611,181.837677 468.103241,188.696030 467.018250,195.526642 
	C466.338226,199.808060 463.283539,201.886230 459.301605,201.908875 
	C436.484406,202.038605 413.665161,202.091980 390.848755,201.906052 
	C383.266083,201.844269 381.992462,200.141510 381.991180,192.630676 
	C381.989380,182.304306 381.988129,171.977921 381.993256,161.651550 
	C381.996552,154.973358 383.696716,153.162186 390.522522,153.042877 
	C397.682312,152.917709 404.845673,152.997284 412.471375,152.995010 
	C412.706879,154.437714 412.478485,155.872803 411.737213,157.491714 
	C404.263672,157.484863 397.290192,156.968750 390.347900,157.242722 
	C386.948334,157.376892 384.864777,159.755478 384.944153,163.747742 
	C385.126373,172.910507 385.023712,182.079453 384.992645,191.245728 
	C384.977356,195.766541 387.138519,198.000168 391.680359,197.996979 
	C411.179749,197.983276 430.679474,197.933350 450.178192,198.048508 
	C453.559387,198.068466 455.105774,196.430389 456.704254,193.743683 
	C461.003967,186.516937 460.518188,178.630646 459.822296,170.933487 
	C458.771240,159.307404 455.889679,157.065186 444.497833,156.992142 
	C444.331207,156.991074 444.164551,156.986191 443.998718,156.590607 
	C443.997864,155.154190 443.996185,154.110245 443.994507,153.066284 
z"/>
<path fill="#E5E9E4" opacity="1.000000" stroke="none" 
	d="
M374.093689,341.315765 
	C373.086212,344.287506 372.078735,347.259277 370.973450,350.608978 
	C370.592133,348.294098 370.308655,345.601288 369.967285,342.358795 
	C356.987885,332.051147 355.522034,318.487061 360.617035,306.612640 
	C365.437775,295.377258 380.151367,288.219696 392.075256,291.558929 
	C403.073883,294.639069 410.725433,301.347137 412.826782,312.765503 
	C415.222839,325.785675 409.967316,337.157288 399.006042,343.306061 
	C395.686279,345.168304 396.310791,347.846161 395.425476,350.695618 
	C394.120056,347.934143 393.058441,344.891510 392.185852,341.346741 
	C402.204163,335.158783 406.284485,325.824524 402.860352,315.175201 
	C401.979584,312.436005 399.009644,310.368530 396.999725,307.996246 
	C397.000000,308.000000 397.007507,308.001221 396.980286,307.645844 
	C392.416199,300.680084 385.480865,300.227234 378.723328,301.220032 
	C371.166443,302.330261 365.862000,307.442413 363.116577,314.408356 
	C359.120087,324.548706 363.235443,333.994049 374.093689,341.315765 
z"/>
<path fill="#E7E7E7" opacity="1.000000" stroke="none" 
	d="
M422.000031,220.984375 
	C414.838318,220.980087 408.150085,221.313446 401.528870,220.793396 
	C399.124512,220.604538 396.496277,218.744049 394.745697,216.907211 
	C394.011963,216.137329 394.848022,213.146454 395.805267,211.729263 
	C396.516602,210.676163 398.569702,210.064728 400.030914,210.054230 
	C416.018341,209.939453 432.006958,210.001541 447.995117,209.963181 
	C450.908142,209.956192 453.411285,210.439835 453.939911,213.855820 
	C454.489197,217.405746 452.998993,219.781036 449.379150,220.288452 
	C446.276917,220.723312 443.122253,220.901184 439.986664,220.955460 
	C434.159363,221.056335 428.329041,220.984390 422.000031,220.984375 
z"/>
<path fill="#E5E9E4" opacity="1.000000" stroke="none" 
	d="
M228.145615,258.893402 
	C234.949203,250.267105 232.838272,240.428024 223.124741,237.660141 
	C218.062576,236.217667 214.146866,238.231110 210.526489,242.063538 
	C210.461670,240.636459 210.704102,239.060684 211.021255,236.999390 
	C207.004913,236.999390 202.913055,236.999512 198.821198,236.999359 
	C193.999542,236.999191 189.169434,237.157440 184.361420,236.901245 
	C182.929688,236.824951 181.559937,235.585815 180.161789,234.879456 
	C181.476364,234.256973 182.781372,233.612640 184.113281,233.029709 
	C184.392456,232.907516 184.770584,233.011154 185.103119,233.011139 
	C209.710190,233.010742 234.317276,233.010300 258.924347,233.010529 
	C259.589386,233.010529 260.349640,232.811951 260.899017,233.065994 
	C261.938721,233.546829 262.857361,234.289520 263.826294,234.923401 
	C262.910919,235.611282 262.085327,236.571198 261.055145,236.911240 
	C260.004364,237.258057 258.752472,236.999237 257.588654,236.999359 
	C247.782349,237.000351 237.976059,236.999924 227.658066,236.999924 
	C231.093323,240.593353 233.148666,245.443405 239.572266,244.409088 
	C239.999207,245.854141 239.998550,246.898117 239.997879,247.942078 
	C239.002411,247.962112 238.002670,248.050751 237.012253,247.989319 
	C234.056000,247.805908 233.496872,249.826950 234.119919,251.847031 
	C234.506958,253.101974 236.176651,254.794189 237.331253,254.842529 
	C244.123489,255.126892 250.933792,254.954865 257.737427,255.009537 
	C259.407257,255.022949 261.074890,255.308304 262.743530,255.468643 
	C262.797363,256.005554 262.851227,256.542511 262.905060,257.079437 
	C261.719635,257.392822 260.542664,257.939514 259.347382,257.983002 
	C249.099350,258.355774 238.847977,258.637573 228.145615,258.893402 
z"/>
<path fill="#E7E7E7" opacity="1.000000" stroke="none" 
	d="
M235.000000,226.011734 
	C216.462204,226.011093 198.424408,226.011093 180.386612,226.011093 
	C180.198532,225.290939 180.010452,224.570786 179.822372,223.850632 
	C181.306335,223.239822 182.787994,222.102997 184.274597,222.096512 
	C209.421722,221.986679 234.569595,221.986221 259.716614,222.106995 
	C261.004211,222.113174 262.285522,223.427002 263.569763,224.132004 
	C262.207123,224.757416 260.855591,225.894073 259.480011,225.923965 
	C251.489807,226.097641 243.493942,226.011002 235.000000,226.011734 
z"/>
<path fill="#F7F7F7" opacity="1.000000" stroke="none" 
	d="
M335.811951,186.869904 
	C339.988953,185.931168 343.757874,185.072647 348.202362,184.060242 
	C345.467163,188.337799 286.678772,202.640854 279.542175,200.787933 
	C297.806427,194.805542 316.706726,191.268311 335.811951,186.869904 
z"/>
<path fill="#F7B6B8" opacity="1.000000" stroke="none" 
	d="
M470.400208,174.976196 
	C464.123840,170.329712 463.524109,168.099487 467.204773,162.276077 
	C469.154663,161.527496 470.577087,161.145844 471.999512,160.764191 
	C473.049530,160.877808 474.099548,160.991409 475.540161,161.167664 
	C478.610870,164.576035 481.290985,167.921768 484.064606,171.597305 
	C481.991669,173.601440 479.825256,175.275772 477.312256,177.001297 
	C474.911316,176.355423 472.856934,175.658371 470.400208,174.976196 
z"/>
<path fill="#F7F7F7" opacity="1.000000" stroke="none" 
	d="
M341.792603,262.207703 
	C349.355347,270.319763 348.553070,273.341919 338.263763,275.946777 
	C332.419495,277.426300 326.503662,278.623108 320.322052,279.019562 
	C327.302979,274.019226 336.283722,274.366394 344.661987,270.352112 
	C336.819092,260.975647 329.373932,252.074738 321.587158,242.765411 
	C326.079315,242.717987 334.068298,250.733871 341.792603,262.207703 
z"/>
<path fill="#F7F7F7" opacity="1.000000" stroke="none" 
	d="
M363.180054,189.225525 
	C366.554901,185.607300 363.165649,184.646011 361.189270,183.678177 
	C353.636047,179.979446 345.963257,176.525223 338.347290,172.953873 
	C336.923370,172.286163 335.555176,171.499710 334.161255,170.768051 
	C334.263519,170.299118 334.365814,169.830170 334.468079,169.361237 
	C335.851349,169.515762 337.384369,169.336166 338.593933,169.878265 
	C347.353912,173.804459 356.072144,177.826553 364.751770,181.927917 
	C367.999329,183.462463 369.647827,186.643951 367.003265,189.139404 
	C361.382141,194.443665 355.033203,198.978195 348.942688,203.777634 
	C348.697601,203.970764 348.045288,203.647018 345.812347,203.246796 
	C352.147583,198.135712 357.528412,193.794617 363.180054,189.225525 
z"/>
<path fill="#F7F7F7" opacity="1.000000" stroke="none" 
	d="
M289.978027,250.996399 
	C303.315491,254.456406 316.227264,257.906891 329.139008,261.357391 
	C324.445343,264.457062 286.637970,255.041901 281.728271,249.965866 
	C284.336273,250.306213 286.944305,250.646561 289.978027,250.996399 
z"/>
<path fill="#E7E7E7" opacity="1.000000" stroke="none" 
	d="
M205.532516,244.010529 
	C206.001160,245.073883 206.001099,246.127518 206.003448,247.575623 
	C198.699600,247.977753 191.391586,248.067780 184.088760,247.913101 
	C182.852005,247.886932 181.637543,246.808121 180.412781,246.215637 
	C181.655579,245.476410 182.880402,244.135635 184.144135,244.097885 
	C191.112106,243.889786 198.089584,243.999863 205.532516,244.010529 
z"/>
<path fill="#E6E6E6" opacity="1.000000" stroke="none" 
	d="
M240.466476,247.959778 
	C239.998550,246.898117 239.999207,245.854141 239.999634,244.418442 
	C247.860199,244.026703 255.721008,244.026703 263.581818,244.026703 
	C263.763397,244.731537 263.944946,245.436371 264.126526,246.141205 
	C262.526764,246.757065 260.943085,247.849396 259.324371,247.904083 
	C253.200775,248.110962 247.065796,247.981247 240.466476,247.959778 
z"/>
<path fill="#E7E7E7" opacity="1.000000" stroke="none" 
	d="
M417.794861,147.071747 
	C416.724030,148.764206 415.260956,150.415100 413.516541,152.251221 
	C412.702637,149.153030 414.061707,147.327744 417.794861,147.071747 
z"/>
<path fill="#E5E9E4" opacity="1.000000" stroke="none" 
	d="
M394.426147,354.985168 
	C394.257629,354.455414 394.373199,353.897247 394.731018,353.175232 
	C394.885590,353.659821 394.797913,354.308258 394.426147,354.985168 
z"/>
<path fill="#E5E9E4" opacity="1.000000" stroke="none" 
	d="
M370.946014,353.097046 
	C371.461884,353.449036 371.723907,353.939270 371.941620,354.719666 
	C371.495605,354.418274 371.093872,353.826813 370.946014,353.097046 
z"/>
<path fill="#E5E9E4" opacity="1.000000" stroke="none" 
	d="
M386.294189,362.008972 
	C386.459869,361.675781 386.915894,361.352783 387.677673,361.080231 
	C387.517151,361.426819 387.050842,361.722992 386.294189,362.008972 
z"/>
<path fill="#E5E9E4" opacity="1.000000" stroke="none" 
	d="
M393.238220,356.840454 
	C393.095001,356.625153 393.196747,356.261536 393.559662,355.767090 
	C393.708252,355.988251 393.595734,356.340179 393.238220,356.840454 
z"/>
<path fill="#E5E9E4" opacity="1.000000" stroke="none" 
	d="
M378.211487,361.357117 
	C378.397522,361.169189 378.781555,361.202637 379.361145,361.459167 
	C379.174286,361.647675 378.791870,361.613068 378.211487,361.357117 
z"/>
<path fill="#E5E9E4" opacity="1.000000" stroke="none" 
	d="
M388.985596,360.822754 
	C388.949249,360.573456 389.188965,360.308655 389.709534,360.031250 
	C389.747498,360.281525 389.504578,360.544373 388.985596,360.822754 
z"/>
<path fill="#E5E9E4" opacity="1.000000" stroke="none" 
	d="
M376.153351,360.210663 
	C376.374725,360.082245 376.719177,360.204346 377.172424,360.588043 
	C376.946289,360.720154 376.611389,360.590668 376.153351,360.210663 
z"/>
<path fill="#E5E9E4" opacity="1.000000" stroke="none" 
	d="
M373.067413,357.219360 
	C373.287903,357.163239 373.555206,357.343842 373.839844,357.776154 
	C373.518005,357.956177 373.270355,357.765564 373.067413,357.219360 
z"/>
<path fill="#E5E9E4" opacity="1.000000" stroke="none" 
	d="
M372.201599,355.907104 
	C372.459808,355.876465 372.726501,356.135498 373.005615,356.686584 
	C372.748688,356.718018 372.479401,356.457367 372.201599,355.907104 
z"/>
<path fill="#E7E7E7" opacity="1.000000" stroke="none" 
	d="
M420.092590,146.164032 
	C420.093170,146.407867 419.828339,146.634460 419.291748,146.824860 
	C419.289062,146.574707 419.558075,146.360748 420.092590,146.164032 
z"/>
<path fill="#FDFDFD" opacity="1.000000" stroke="none" 
	d="
M471.946472,160.438141 
	C470.577087,161.145844 469.154663,161.527496 467.365540,161.936981 
	C466.360626,160.208969 465.722473,158.453125 465.057343,156.343658 
	C467.318054,157.364075 469.605743,158.738083 471.946472,160.438141 
z"/>
<path fill="#E7E7E7" opacity="1.000000" stroke="none" 
	d="
M641.200806,307.868225 
	C638.019165,309.247070 634.823059,310.259674 631.626953,311.272278 
	C631.463867,310.573242 631.300781,309.874176 631.137695,309.175140 
	C634.174438,307.291626 637.428040,306.327301 641.200806,307.868225 
z"/>
<path fill="#FFFFFF" opacity="1.000000" stroke="none" 
	d="
M443.997925,156.983078 
	C444.164551,156.986191 444.331207,156.991074 444.497833,156.992142 
	C455.889679,157.065186 458.771240,159.307404 459.822296,170.933487 
	C460.518188,178.630646 461.003967,186.516937 456.704254,193.743683 
	C455.105774,196.430389 453.559387,198.068466 450.178192,198.048508 
	C430.679474,197.933350 411.179749,197.983276 391.680359,197.996979 
	C387.138519,198.000168 384.977356,195.766541 384.992645,191.245728 
	C385.023712,182.079453 385.126373,172.910507 384.944153,163.747742 
	C384.864777,159.755478 386.948334,157.376892 390.347900,157.242722 
	C397.290192,156.968750 404.263672,157.484863 411.609619,157.835632 
	C412.150330,158.594910 412.305725,159.194077 412.337799,160.392761 
	C412.412018,161.322037 412.609528,161.651794 412.807007,161.981552 
	C412.807007,161.981552 413.046051,162.401886 413.073853,162.876312 
	C413.218384,163.665573 413.436127,163.875824 413.754883,163.981476 
	C413.754883,163.981476 414.075745,164.273193 414.025452,164.917603 
	C413.696503,173.640289 413.242767,181.718628 413.245087,189.796844 
	C413.245789,192.242447 414.928497,193.735535 417.733490,192.121490 
	C422.020630,189.654526 426.463623,187.441223 430.634186,184.795105 
	C433.256958,183.131027 435.502777,180.872818 437.917725,178.881165 
	C435.349365,176.982712 432.990997,174.629425 430.151337,173.318665 
	C427.516754,172.102554 428.043274,170.889420 428.986816,169.128418 
	C428.986816,169.128418 429.283600,168.858810 429.764587,168.830032 
	C430.490387,168.531784 430.735199,168.262314 430.980042,167.992844 
	C430.980042,167.992844 430.995972,167.997040 431.377441,168.005646 
	C432.806580,166.627274 433.854218,165.240311 434.901855,163.853333 
	C434.901855,163.853333 434.955627,163.369324 435.307465,163.014771 
	C435.712982,162.327072 435.766693,161.993927 435.820374,161.660797 
	C435.866486,161.286743 435.912567,160.912704 436.428406,160.197449 
	C438.296631,156.506271 441.219055,156.922028 443.997925,156.983078 
z"/>
<path fill="#E5E9E4" opacity="1.000000" stroke="none" 
	d="
M428.595001,169.096252 
	C428.043274,170.889420 427.516754,172.102554 430.151337,173.318665 
	C432.990997,174.629425 435.349365,176.982712 437.917725,178.881165 
	C435.502777,180.872818 433.256958,183.131027 430.634186,184.795105 
	C426.463623,187.441223 422.020630,189.654526 417.733490,192.121490 
	C414.928497,193.735535 413.245789,192.242447 413.245087,189.796844 
	C413.242767,181.718628 413.696503,173.640289 414.067963,165.130219 
	C417.957733,168.996475 422.470245,170.993042 428.595001,169.096252 
z"/>
<path fill="#E5E9E4" opacity="1.000000" stroke="none" 
	d="
M443.998718,156.590607 
	C441.219055,156.922028 438.296631,156.506271 436.549866,159.939392 
	C436.103546,158.311920 436.005493,156.601273 435.931763,154.462036 
	C438.355103,153.698822 440.754150,153.364212 443.573853,153.047943 
	C443.996185,154.110245 443.997864,155.154190 443.998718,156.590607 
z"/>
<path fill="#E5E9E4" opacity="1.000000" stroke="none" 
	d="
M434.615417,163.998886 
	C433.854218,165.240311 432.806580,166.627274 431.377625,167.997589 
	C432.107239,166.702087 433.218109,165.423248 434.615417,163.998886 
z"/>
<path fill="#E5E9E4" opacity="1.000000" stroke="none" 
	d="
M433.772797,150.440125 
	C434.299896,150.635864 434.881378,151.122864 435.237366,151.801193 
	C434.616943,151.572144 434.222076,151.151764 433.772797,150.440125 
z"/>
<path fill="#E5E9E4" opacity="1.000000" stroke="none" 
	d="
M430.698334,168.014633 
	C430.735199,168.262314 430.490387,168.531784 429.964600,168.815994 
	C429.927917,168.565964 430.172272,168.301193 430.698334,168.014633 
z"/>
<path fill="#E3E4E4" opacity="1.000000" stroke="none" 
	d="
M430.027496,147.268127 
	C430.273712,147.007339 430.550995,147.111816 430.876343,147.563354 
	C430.630676,147.859390 430.342072,147.767044 430.027496,147.268127 
z"/>
<path fill="#E7E7E7" opacity="1.000000" stroke="none" 
	d="
M413.773438,163.734436 
	C413.436127,163.875824 413.218384,163.665573 413.081665,163.117950 
	C413.430176,162.934296 413.673615,163.135025 413.773438,163.734436 
z"/>
<path fill="#E7E7E7" opacity="1.000000" stroke="none" 
	d="
M412.862061,161.690048 
	C412.609528,161.651794 412.412018,161.322037 412.283264,160.699631 
	C412.540405,160.737503 412.728760,161.068024 412.862061,161.690048 
z"/>
<path fill="#E3E4E4" opacity="1.000000" stroke="none" 
	d="
M427.938690,146.378052 
	C428.160034,146.054123 428.452179,146.113174 428.840332,146.525543 
	C428.968964,146.717621 428.487396,146.801468 428.487396,146.801468 
	C428.487396,146.801468 428.042114,146.599792 427.938690,146.378052 
z"/>
<path fill="#E5E9E4" opacity="1.000000" stroke="none" 
	d="
M435.590942,161.801880 
	C435.766693,161.993927 435.712982,162.327072 435.452209,162.818970 
	C435.283905,162.632797 435.322723,162.287872 435.590942,161.801880 
z"/>
<path fill="#FDFDFD" opacity="1.000000" stroke="none" 
	d="
M396.999451,307.992493 
	C399.009644,310.368530 401.979584,312.436005 402.860352,315.175201 
	C406.284485,325.824524 402.204163,335.158783 392.054718,341.010010 
	C390.655273,340.522369 389.575989,339.869293 388.062134,338.811890 
	C387.269989,338.347931 386.912384,338.288239 386.554810,338.228546 
	C386.193542,338.195404 385.832245,338.162231 385.010101,337.758362 
	C383.369934,337.553070 382.190643,337.718445 381.011353,337.883850 
	C380.669830,338.012787 380.328339,338.141754 379.433685,338.215454 
	C378.591248,338.375061 378.301910,338.589935 378.012573,338.804810 
	C378.012573,338.804810 377.634491,339.057831 377.153137,339.107208 
	C376.445312,339.401215 376.218811,339.645874 375.992371,339.890564 
	C375.555328,340.304474 375.118317,340.718384 374.387512,341.224060 
	C363.235443,333.994049 359.120087,324.548706 363.116577,314.408356 
	C365.862000,307.442413 371.166443,302.330261 378.723328,301.220032 
	C385.480865,300.227234 392.416199,300.680084 396.634064,307.613922 
	C392.918823,306.247467 391.516205,308.780121 390.039368,310.974182 
	C386.466949,316.281647 382.955872,321.630402 379.118713,327.416931 
	C377.474762,325.443634 376.535858,323.828796 375.159088,322.799591 
	C373.750549,321.746582 371.912872,321.267609 370.263062,320.537354 
	C370.342773,322.421143 369.885223,324.557556 370.625122,326.130859 
	C371.804016,328.637634 373.723877,330.812469 375.431671,333.050385 
	C378.567932,337.160156 380.145050,337.085388 383.143585,332.700287 
	C386.233246,328.181946 389.513275,323.766693 392.236359,319.033813 
	C394.222168,315.582458 395.439514,311.688904 396.999451,307.992493 
z"/>
<path fill="#E5E9E4" opacity="1.000000" stroke="none" 
	d="
M381.402496,337.973755 
	C382.190643,337.718445 383.369934,337.553070 384.766327,337.629730 
	C383.920166,337.935730 382.856903,337.999695 381.402496,337.973755 
z"/>
<path fill="#E5E9E4" opacity="1.000000" stroke="none" 
	d="
M376.261047,339.889160 
	C376.218811,339.645874 376.445312,339.401215 376.926331,339.123901 
	C376.963806,339.356689 376.746796,339.622223 376.261047,339.889160 
z"/>
<path fill="#E5E9E4" opacity="1.000000" stroke="none" 
	d="
M386.712891,338.470215 
	C386.912384,338.288239 387.269989,338.347931 387.805511,338.623596 
	C387.612610,338.796997 387.241791,338.754425 386.712891,338.470215 
z"/>
<path fill="#E5E9E4" opacity="1.000000" stroke="none" 
	d="
M378.294983,338.848022 
	C378.301910,338.589935 378.591248,338.375061 379.159119,338.187195 
	C379.150940,338.439880 378.864166,338.665527 378.294983,338.848022 
z"/>
<path fill="#FFFFFF" opacity="1.000000" stroke="none" 
	d="
M211.000046,197.015198 
	C204.835175,197.016327 199.170258,197.025742 193.505386,197.016434 
	C186.159180,197.004379 182.249390,193.617081 182.080719,186.273087 
	C181.824478,175.115829 181.862534,163.945587 182.069763,152.786316 
	C182.188034,146.416962 186.475189,142.130569 192.870148,142.071594 
	C210.529770,141.908752 228.192505,141.932999 245.852676,142.064102 
	C252.126175,142.110672 255.967209,146.285965 255.986786,152.532089 
	C256.021240,163.528549 256.032013,174.525330 255.984802,185.521698 
	C255.949539,193.735062 252.652313,196.993805 244.489761,197.005936 
	C233.493195,197.022293 222.496613,197.013306 211.000046,197.015198 
z"/>
<path fill="#E7E7E7" opacity="1.000000" stroke="none" 
	d="
M396.999725,307.996246 
	C395.439514,311.688904 394.222168,315.582458 392.236359,319.033813 
	C389.513275,323.766693 386.233246,328.181946 383.143585,332.700287 
	C380.145050,337.085388 378.567932,337.160156 375.431671,333.050385 
	C373.723877,330.812469 371.804016,328.637634 370.625122,326.130859 
	C369.885223,324.557556 370.342773,322.421143 370.263062,320.537354 
	C371.912872,321.267609 373.750549,321.746582 375.159088,322.799591 
	C376.535858,323.828796 377.474762,325.443634 379.118713,327.416931 
	C382.955872,321.630402 386.466949,316.281647 390.039368,310.974182 
	C391.516205,308.780121 392.918823,306.247467 396.661316,307.969299 
	C397.007507,308.001221 397.000000,308.000000 396.999725,307.996246 
z"/>
</svg>